<?xml version="1.0" encoding="UTF-8" standalone="no"?>
<!-- Created with Inkscape (http://www.inkscape.org/) -->

<svg
   xmlns:dc="http://purl.org/dc/elements/1.1/"
   xmlns:cc="http://creativecommons.org/ns#"
   xmlns:rdf="http://www.w3.org/1999/02/22-rdf-syntax-ns#"
   xmlns:svg="http://www.w3.org/2000/svg"
   xmlns="http://www.w3.org/2000/svg"
   xmlns:sodipodi="http://sodipodi.sourceforge.net/DTD/sodipodi-0.dtd"
   xmlns:inkscape="http://www.inkscape.org/namespaces/inkscape"
   width="569.65381"
   height="150.67815"
   id="svg2"
   version="1.1"
   inkscape:version="0.48.4 r9939"
   sodipodi:docname="keystoneTextLogo.svg">
  <defs
     id="defs4" />
  <sodipodi:namedview
     id="base"
     pagecolor="#ffffff"
     bordercolor="#666666"
     borderopacity="1.0"
     inkscape:pageopacity="0.0"
     inkscape:pageshadow="2"
     inkscape:zoom="0.96464159"
     inkscape:cx="271.73948"
     inkscape:cy="27.957359"
     inkscape:document-units="px"
     inkscape:current-layer="flowRoot3053"
     showgrid="false"
     inkscape:window-width="1920"
     inkscape:window-height="1017"
     inkscape:window-x="-8"
     inkscape:window-y="-8"
     inkscape:window-maximized="1"
     fit-margin-top="0"
     fit-margin-left="0"
     fit-margin-right="0"
     fit-margin-bottom="0" />
  <metadata
     id="metadata7">
    <rdf:RDF>
      <cc:Work
         rdf:about="">
        <dc:format>image/svg+xml</dc:format>
        <dc:type
           rdf:resource="http://purl.org/dc/dcmitype/StillImage" />
        <dc:title />
      </cc:Work>
    </rdf:RDF>
  </metadata>
  <g
     inkscape:label="Layer 1"
     inkscape:groupmode="layer"
     id="layer1"
     transform="translate(-103.26051,-244.58658)">
    <g
       style="font-size:16px;font-style:normal;font-variant:normal;font-weight:normal;font-stretch:normal;line-height:125%;letter-spacing:0px;word-spacing:0px;fill:#000000;fill-opacity:1;stroke:none;font-family:Roboto;-inkscape-font-specification:Roboto"
       id="flowRoot2985"
       transform="matrix(1.2397984,0,0,0.9125235,-80.0572,28.46265)">
      <path
         d="m 223.89844,285.77954 -15.67969,0 -0.91406,0 c -0.84376,0 -1.49415,-0.1582 -1.95117,-0.47461 -0.45704,-0.3164 -0.68555,-0.76758 -0.68555,-1.35352 0,-0.96093 0.46874,-1.59374 1.40625,-1.89843 0.77343,-0.25781 1.2246,-0.41601 1.35351,-0.47461 0.1289,-0.0586 0.26367,-0.19336 0.4043,-0.4043 0.28124,-0.37499 0.42187,-0.97265 0.42188,-1.79297 l 0,-35.1914 c -1e-5,-0.82027 -0.14064,-1.41793 -0.42188,-1.79297 -0.14063,-0.2109 -0.2754,-0.34566 -0.4043,-0.4043 -0.12891,-0.0586 -0.58008,-0.21675 -1.35351,-0.47461 -0.93751,-0.30464 -1.40625,-0.93745 -1.40625,-1.89844 0,-0.58589 0.22851,-1.03706 0.68555,-1.35351 0.45702,-0.31636 1.10741,-0.47456 1.95117,-0.47461 l 0.91406,0 15.67969,0 0.91406,0 c 0.84373,5e-5 1.49412,0.15825 1.95117,0.47461 0.45701,0.31645 0.68552,0.76762 0.68555,1.35351 -3e-5,0.96099 -0.46878,1.5938 -1.40625,1.89844 -0.77346,0.25786 -1.22463,0.41606 -1.35352,0.47461 -0.12893,0.0586 -0.26369,0.1934 -0.40429,0.4043 -0.28128,0.37504 -0.4219,0.9727 -0.42188,1.79297 l 0,35.1914 c -2e-5,1.31251 0.33982,2.08594 1.01953,2.32031 l 1.08985,0.35157 c 0.8906,0.28125 1.33591,0.91406 1.33593,1.89843 -2e-5,1.21876 -0.83205,1.82813 -2.49609,1.82813 z m 13.92187,-34.06641 10.61719,27.77344 c 0.2812,0.75001 0.57417,1.31837 0.87891,1.70508 0.30464,0.38672 0.70307,0.68555 1.19531,0.89648 0.49214,0.23438 0.80854,0.41016 0.94922,0.52735 0.32807,0.32813 0.49213,0.76172 0.49218,1.30078 -5e-5,1.24219 -0.87895,1.86328 -2.63671,1.86328 l -17.6836,0 c -0.84378,0 -1.49417,-0.17578 -1.95117,-0.52734 -0.45706,-0.35157 -0.68557,-0.85547 -0.68555,-1.51172 -2e-5,-0.75 0.43357,-1.33594 1.30078,-1.75782 0.53904,-0.2578 0.90232,-0.4746 1.08985,-0.65039 0.18747,-0.17577 0.29294,-0.41601 0.3164,-0.7207 -3e-5,-0.16406 -0.0938,-0.53906 -0.28125,-1.125 l -4.5,-13.42969 c -0.4219,-1.24216 -0.63283,-2.29685 -0.63281,-3.16406 -2e-5,-0.82029 0.33982,-1.71091 1.01953,-2.67187 l 8.40235,-11.84766 c 0.79684,-1.10152 1.19527,-2.24996 1.19531,-3.44531 -4e-5,-0.65621 -0.17582,-1.26559 -0.52734,-1.82813 -0.3516,-0.56245 -0.82035,-0.96089 -1.40625,-1.19531 l -1.26563,-0.52734 c -0.79691,-0.32808 -1.19534,-0.87886 -1.19531,-1.65235 -3e-5,-0.63276 0.24606,-1.14839 0.73828,-1.54687 0.32809,-0.25777 0.86715,-0.38667 1.61719,-0.38672 l 12.51562,0 c 0.82027,5e-5 1.45894,0.18169 1.91602,0.54492 0.45698,0.36333 0.6855,0.87309 0.68554,1.5293 -4e-5,0.98442 -0.53911,1.68754 -1.61718,2.10937 l -1.86328,0.73828 c -0.77349,0.2813 -1.75786,0.91411 -2.95313,1.89844 -0.89067,0.75004 -1.99223,2.00395 -3.30469,3.76172 z"
         style="font-size:72px;text-align:center;line-height:81.00001812%;text-anchor:middle;font-family:Stencil;-inkscape-font-specification:Stencil"
         id="path3023"
         inkscape:connector-curvature="0" />
      <path
         d="m 276,237.79126 0,47.98828 -15.64453,0 -0.91406,0 c -0.84376,0 -1.49415,-0.1582 -1.95118,-0.47461 -0.45703,-0.3164 -0.68555,-0.76758 -0.68554,-1.35352 -10e-6,-0.96093 0.46874,-1.59374 1.40625,-1.89843 0.77343,-0.25781 1.2246,-0.41601 1.35351,-0.47461 0.1289,-0.0586 0.26367,-0.19336 0.4043,-0.4043 0.28124,-0.37499 0.42187,-0.97265 0.42187,-1.79297 l 0,-35.1914 c 0,-0.82027 -0.14063,-1.41793 -0.42187,-1.79297 -0.14063,-0.2109 -0.2754,-0.34566 -0.4043,-0.4043 -0.12891,-0.0586 -0.58008,-0.21675 -1.35351,-0.47461 -0.93751,-0.30464 -1.40626,-0.93745 -1.40625,-1.89844 -10e-6,-0.58589 0.22851,-1.03706 0.68554,-1.35351 0.45703,-0.31636 1.10742,-0.47456 1.95118,-0.47461 l 0.91406,0 z m 3.12891,0 14.16796,0 0,12.44531 c -3e-5,0.7266 -0.14066,1.25394 -0.42187,1.58203 -0.28129,0.32816 -0.7266,0.49222 -1.33594,0.49219 -0.51566,3e-5 -0.89066,-0.10544 -1.125,-0.31641 -0.23441,-0.2109 -0.45706,-0.64449 -0.66797,-1.30078 -0.89066,-2.71871 -2.1973,-4.79293 -3.91992,-6.22265 -1.72268,-1.42965 -3.9551,-2.28512 -6.69726,-2.56641 z m -0.17579,25.59375 0,-4.07813 c 1.35935,-0.65622 2.36717,-1.37106 3.02344,-2.14453 0.65622,-0.77341 1.13669,-1.80465 1.44141,-3.09375 0.18747,-0.89059 0.43356,-1.50582 0.73828,-1.8457 0.30466,-0.33981 0.73825,-0.50973 1.30078,-0.50977 0.74997,4e-5 1.26559,0.29301 1.54688,0.87891 0.16403,0.30472 0.24606,0.99613 0.24609,2.07422 l 0,13.39453 c -3e-5,1.10158 -0.12308,1.8633 -0.36914,2.28516 -0.24613,0.42189 -0.6973,0.63282 -1.35352,0.63281 -0.53909,10e-6 -0.96096,-0.16405 -1.26562,-0.49219 -0.30472,-0.32811 -0.55081,-0.87889 -0.73828,-1.65234 -0.39847,-1.61717 -0.96683,-2.85936 -1.70508,-3.72657 -0.73831,-0.86716 -1.69339,-1.44138 -2.86524,-1.72265 z m 0.21094,22.39453 0,-3.79688 c 1.52341,-0.23437 2.78318,-0.56249 3.7793,-0.98437 0.99606,-0.42187 1.99802,-1.0664 3.00586,-1.93359 1.00778,-0.86718 1.81051,-1.76367 2.4082,-2.68946 0.59762,-0.92577 1.16598,-2.15038 1.70508,-3.67383 0.25778,-0.74998 0.52731,-1.25975 0.80859,-1.52929 0.28122,-0.26952 0.66793,-0.40428 1.16016,-0.4043 0.65621,2e-5 1.11324,0.19338 1.37109,0.58008 0.25778,0.38673 0.38668,1.06056 0.38672,2.02148 l 0,12.41016 z"
         style="font-size:72px;text-align:center;line-height:81.00001812%;text-anchor:middle;font-family:Stencil;-inkscape-font-specification:Stencil"
         id="path3025"
         inkscape:connector-curvature="0" />
      <path
         d="m 325.11328,263.77173 0,15.32812 c -3e-5,0.91407 0.17575,1.57032 0.52734,1.96875 0.18748,0.23438 0.36326,0.38087 0.52735,0.43946 0.16403,0.0586 0.70309,0.20508 1.61719,0.43945 1.12496,0.25781 1.68746,0.90235 1.6875,1.93359 -4e-5,0.67969 -0.31644,1.19532 -0.94922,1.54688 -0.37503,0.23437 -1.1016,0.35156 -2.17969,0.35156 l -1.19531,0 -15.67969,0 -1.16016,0 c -1.05469,0 -1.79298,-0.14062 -2.21484,-0.42188 -0.60938,-0.37499 -0.91407,-0.86718 -0.91406,-1.47656 -10e-6,-1.03124 0.56249,-1.67578 1.6875,-1.93359 0.91405,-0.23437 1.45311,-0.38086 1.61718,-0.43945 0.16406,-0.0586 0.32812,-0.20508 0.49219,-0.43946 0.35155,-0.39843 0.52733,-1.05468 0.52735,-1.96875 l 0,-11.88281 -9.94922,-23.73047 c -0.37501,-0.89058 -0.90235,-1.53511 -1.58203,-1.93359 -0.63282,-0.3984 -1.03711,-0.7148 -1.21289,-0.94922 -0.17579,-0.23433 -0.26368,-0.56246 -0.26368,-0.98438 0,-1.2187 0.89063,-1.82807 2.67188,-1.82812 l 17.22656,0 c 0.91404,5e-5 1.54685,0.10552 1.89844,0.3164 0.58591,0.37505 0.87888,0.86724 0.8789,1.47657 -2e-5,0.75004 -0.33986,1.33598 -1.01953,1.75781 l -1.01953,0.63281 c -0.39846,0.25786 -0.59767,0.64458 -0.59765,1.16016 -2e-5,0.58598 0.12888,1.1602 0.38671,1.72265 z m 1.37109,-3.33985 -1.96875,-4.60547 3.69141,-8.26171 c 0.30466,-0.70309 0.457,-1.66403 0.45703,-2.88282 -3e-5,-1.35933 -0.75003,-2.33198 -2.25,-2.91797 -0.82034,-0.32808 -1.35354,-0.61518 -1.59961,-0.86132 -0.24612,-0.24605 -0.36917,-0.62691 -0.36914,-1.14258 -3e-5,-0.63277 0.21091,-1.11324 0.63281,-1.44141 0.28123,-0.21089 0.59763,-0.35151 0.94922,-0.42187 0.35154,-0.0703 0.96091,-0.10542 1.82813,-0.10547 l 8.68359,0 c 1.64059,5e-5 2.4609,0.6563 2.46094,1.96875 -4e-5,0.46879 -0.11137,0.83208 -0.33398,1.08984 -0.2227,0.25786 -0.65044,0.52739 -1.28321,0.8086 -1.14847,0.51566 -1.96879,1.03129 -2.46094,1.54687 -0.70316,0.75004 -1.28909,1.60551 -1.75781,2.56641 l -0.80859,1.79297 z"
         style="font-size:72px;text-align:center;line-height:81.00001812%;text-anchor:middle;font-family:Stencil;-inkscape-font-specification:Stencil"
         id="path3027"
         inkscape:connector-curvature="0" />
      <path
         d="m 358.37109,236.84204 0,4.04297 c -1.45314,0.39848 -2.56056,1.01371 -3.32226,1.8457 -0.76174,0.83208 -1.14259,1.85746 -1.14258,3.07617 -10e-6,1.17192 0.31639,2.19731 0.94922,3.07618 0.6328,0.87894 1.66404,1.71683 3.09375,2.51367 0.98435,0.53909 3.21091,1.57034 6.67969,3.09375 2.10934,0.91409 3.74411,1.74026 4.90429,2.47851 1.16013,0.73831 2.25583,1.65823 3.28711,2.75977 2.76559,2.90627 4.1484,6.3633 4.14844,10.37109 -4e-5,3.02345 -0.75004,5.78907 -2.25,8.29688 -1.50003,2.50781 -3.56253,4.47656 -6.1875,5.90625 -1.40628,0.75 -2.94729,1.34179 -4.62305,1.77539 -1.6758,0.43359 -3.24025,0.65039 -4.69336,0.65039 l 0,-4.00781 c 2.03904,-0.49219 3.50975,-1.17773 4.41211,-2.05664 0.90232,-0.8789 1.35349,-2.06836 1.35352,-3.56836 -3e-5,-1.57031 -0.70315,-2.95312 -2.10938,-4.14844 -0.93752,-0.77343 -2.71877,-1.73436 -5.34375,-2.88281 -2.88282,-1.26561 -4.85743,-2.16795 -5.92382,-2.70704 -1.06642,-0.53904 -2.09181,-1.17185 -3.07618,-1.89843 -4.40625,-3.1406 -6.60937,-7.32419 -6.60937,-12.55078 0,-2.67184 0.55078,-5.13864 1.65234,-7.40039 1.10156,-2.26168 2.63671,-4.08394 4.60547,-5.4668 2.74218,-1.92183 6.14061,-2.98823 10.19531,-3.19922 z m 2.77735,4.04297 0,-3.86719 c 1.40622,0.0938 2.62497,0.27544 3.65625,0.54492 1.03122,0.26958 2.49606,0.80278 4.39453,1.59961 0.46872,0.18755 0.85544,0.2813 1.16015,0.28125 0.44529,5e-5 0.77341,-0.15229 0.98438,-0.45703 l 0.77344,-1.01953 c 0.37496,-0.51558 0.832,-0.77339 1.37109,-0.77344 0.63278,5e-5 1.09567,0.22857 1.38867,0.68555 0.29294,0.45708 0.43942,1.17778 0.43946,2.16211 l 0,11.60156 c -4e-5,0.67972 -0.1934,1.23636 -0.58008,1.66992 -0.38676,0.43363 -0.8848,0.65043 -1.49414,0.65039 -0.46879,4e-5 -0.90238,-0.15231 -1.30078,-0.45703 -0.21097,-0.18747 -0.3809,-0.41598 -0.50977,-0.68554 -0.12894,-0.2695 -0.25198,-0.72067 -0.36914,-1.35352 -0.25784,-1.1484 -0.70316,-2.33199 -1.33594,-3.55078 -0.63284,-1.21871 -1.37112,-2.30855 -2.21484,-3.26953 -1.68753,-1.8984 -3.80862,-3.1523 -6.36328,-3.76172 z m -4.60547,41.83594 0,4.00781 c -1.92189,0 -4.04298,-0.55078 -6.36328,-1.65235 -0.8672,-0.39843 -1.46486,-0.65624 -1.79297,-0.77343 -0.32814,-0.11719 -0.64454,-0.17578 -0.94922,-0.17578 -0.46876,0 -0.82032,0.0762 -1.05469,0.22851 -0.23438,0.15235 -0.60938,0.53321 -1.125,1.14258 -0.42188,0.51562 -0.87891,0.77344 -1.37109,0.77344 -1.3125,0 -1.96875,-1.00781 -1.96875,-3.02344 l 0,-12.79688 c 0,-0.65623 0.1875,-1.21287 0.5625,-1.66992 0.375,-0.45701 0.84374,-0.69724 1.40625,-0.7207 0.51562,-0.0234 0.91992,0.12306 1.21289,0.43945 0.29296,0.31643 0.54491,0.87307 0.75586,1.66992 0.53905,2.01564 1.31835,3.90236 2.33789,5.66016 1.01952,1.75782 2.20897,3.2461 3.56836,4.46484 1.3828,1.26563 2.97655,2.07423 4.78125,2.42579 z"
         style="font-size:72px;text-align:center;line-height:81.00001812%;text-anchor:middle;font-family:Stencil;-inkscape-font-specification:Stencil"
         id="path3029"
         inkscape:connector-curvature="0" />
      <path
         d="m 408.78516,237.79126 0,41.30859 c -3e-5,0.91407 0.17575,1.57032 0.52734,1.96875 0.18747,0.23438 0.36325,0.38087 0.52734,0.43946 0.16404,0.0586 0.7031,0.20508 1.61719,0.43945 1.12497,0.25781 1.68747,0.90235 1.6875,1.93359 -3e-5,0.60938 -0.30472,1.10157 -0.91406,1.47656 -0.44535,0.28126 -1.19535,0.42188 -2.25,0.42188 l -1.16016,0 -15.67969,0 -1.16015,0 c -1.03126,0 -1.81056,-0.1582 -2.33789,-0.47461 -0.52736,-0.3164 -0.79103,-0.79101 -0.79102,-1.42383 -1e-5,-1.03124 0.56249,-1.67578 1.6875,-1.93359 0.91405,-0.23437 1.45312,-0.38086 1.61719,-0.43945 0.16405,-0.0586 0.32811,-0.20508 0.49219,-0.43946 0.35155,-0.39843 0.52733,-1.05468 0.52734,-1.96875 l 0,-41.30859 z m 12.16406,0 0,14.3789 c -4e-5,0.67973 -0.1934,1.23051 -0.58008,1.65235 -0.38676,0.42191 -0.8848,0.63284 -1.49414,0.63281 -0.58598,3e-5 -1.0723,-0.19333 -1.45898,-0.58008 -0.38676,-0.38668 -0.63871,-0.91989 -0.75586,-1.59961 l -0.35157,-2.14453 c -0.3516,-2.17965 -1.03128,-4.06636 -2.03906,-5.66015 -0.63285,-0.98434 -1.48831,-1.79293 -2.56641,-2.42579 l 0,-4.2539 z m -39.86719,0 9.24609,0 0,4.2539 c -1.10157,0.63286 -1.95703,1.44145 -2.5664,2.42579 -1.00782,1.59379 -1.68751,3.4805 -2.03906,5.66015 l -0.35157,2.14453 c -0.11719,0.67972 -0.36914,1.21293 -0.75586,1.59961 -0.38672,0.38675 -0.87305,0.58011 -1.45898,0.58008 -0.60938,3e-5 -1.10742,-0.2109 -1.49414,-0.63281 -0.38672,-0.42184 -0.58008,-0.97262 -0.58008,-1.65235 z"
         style="font-size:72px;text-align:center;line-height:81.00001812%;text-anchor:middle;font-family:Stencil;-inkscape-font-specification:Stencil"
         id="path3031"
         inkscape:connector-curvature="0" />
      <path
         d="m 443.76562,240.63891 c -1.19533,0.42192 -2.03908,0.99614 -2.53125,1.72266 -0.4922,0.72661 -0.73829,1.79301 -0.73828,3.19922 l 0,31.42969 c -10e-6,2.0625 0.28124,3.51563 0.84375,4.35937 0.4453,0.70313 1.25389,1.20704 2.42578,1.51172 l 0,3.86719 c -5.20314,-0.42188 -9.56251,-2.37891 -13.07812,-5.8711 -4.57032,-4.54686 -6.85547,-10.8867 -6.85547,-19.01953 0,-4.07809 0.60351,-7.76364 1.81055,-11.05664 1.20702,-3.29293 2.99413,-6.08785 5.36133,-8.38476 1.80467,-1.75777 3.74998,-3.09371 5.83593,-4.00782 2.08592,-0.91401 4.39452,-1.42963 6.92578,-1.54687 z m 2.88282,0 0,-3.79687 c 2.53122,0.11724 4.84567,0.63286 6.94336,1.54687 2.09762,0.91411 4.04879,2.25005 5.85351,4.00782 4.78121,4.6641 7.17183,11.14456 7.17188,19.4414 -5e-5,8.13283 -2.2852,14.47267 -6.85547,19.01953 -3.51566,3.51563 -7.88675,5.47266 -13.11328,5.8711 l 0,-3.86719 c 0.60935,-0.14062 1.08396,-0.32226 1.42383,-0.54492 0.33981,-0.22265 0.65036,-0.54492 0.93164,-0.9668 0.63278,-0.96093 0.94919,-2.41405 0.94921,-4.35937 l 0,-31.42969 c -2e-5,-1.24215 -0.21096,-2.22652 -0.63281,-2.95313 -0.28127,-0.49214 -0.61526,-0.87886 -1.00195,-1.16015 -0.38674,-0.28121 -0.94338,-0.55074 -1.66992,-0.8086 z"
         style="font-size:72px;text-align:center;line-height:81.00001812%;text-anchor:middle;font-family:Stencil;-inkscape-font-specification:Stencil"
         id="path3033"
         inkscape:connector-curvature="0" />
      <path
         d="m 490.875,237.79126 18.70312,32.48437 0,15.50391 -9.59765,0 -23.8711,-41.13281 c -0.51563,-0.89059 -0.9375,-1.51168 -1.26562,-1.86328 -0.32813,-0.35152 -0.75001,-0.60934 -1.26563,-0.77344 l -1.33593,-0.49219 c -0.35157,-0.11714 -0.63282,-0.32808 -0.84375,-0.63281 -0.21094,-0.30464 -0.31641,-0.64449 -0.31641,-1.01953 0,-0.39839 0.10547,-0.76753 0.31641,-1.10742 0.21093,-0.3398 0.49218,-0.58003 0.84375,-0.72071 0.39843,-0.16401 1.47655,-0.24604 3.23437,-0.24609 z m -14.73047,12.33984 3.72656,6.1875 0,18.84375 c -10e-6,1.64064 0.27538,2.98829 0.82618,4.04297 0.55076,1.05469 1.42381,1.92188 2.61914,2.60156 l 1.05468,0.59766 c 0.60936,0.35157 0.91405,0.87891 0.91407,1.58203 -2e-5,0.53906 -0.22268,0.98438 -0.66797,1.33594 -0.37502,0.30469 -1.14846,0.45703 -2.32032,0.45703 l -8.12109,0 c -2.13282,0 -3.19922,-0.60937 -3.19922,-1.82813 0,-0.42187 0.11133,-0.75585 0.33399,-1.00195 0.22265,-0.24609 0.70898,-0.58007 1.45898,-1.00195 2.24999,-1.24218 3.37499,-3.5039 3.375,-6.78516 z m 33.43359,14.51953 -3.72656,-6.29297 0,-9.73828 c -4e-5,-1.96871 -0.28714,-3.47457 -0.86133,-4.51757 -0.57425,-1.04293 -1.58792,-1.93941 -3.04101,-2.68946 -0.49222,-0.23433 -0.83207,-0.48628 -1.01953,-0.75586 -0.18754,-0.26948 -0.28129,-0.61519 -0.28125,-1.03711 -4e-5,-0.63276 0.20504,-1.09565 0.61523,-1.38867 0.41012,-0.29292 1.07223,-0.4394 1.98633,-0.43945 l 8.78906,0 c 1.19527,5e-5 1.98043,0.18755 2.35547,0.5625 0.39839,0.37505 0.59761,0.82036 0.59766,1.33594 -5e-5,0.49223 -0.11138,0.86137 -0.33399,1.10742 -0.2227,0.24614 -0.7559,0.58012 -1.59961,1.00195 -1.24223,0.63286 -2.17973,1.60551 -2.8125,2.91797 -0.44535,0.96098 -0.66801,2.26176 -0.66797,3.90234 z"
         style="font-size:72px;text-align:center;line-height:81.00001812%;text-anchor:middle;font-family:Stencil;-inkscape-font-specification:Stencil"
         id="path3035"
         inkscape:connector-curvature="0" />
      <path
         d="m 538.54687,237.79126 0,47.98828 -15.64453,0 -0.91406,0 c -0.84375,0 -1.49414,-0.1582 -1.95117,-0.47461 -0.45703,-0.3164 -0.68555,-0.76758 -0.68555,-1.35352 0,-0.96093 0.46875,-1.59374 1.40625,-1.89843 0.77343,-0.25781 1.22461,-0.41601 1.35352,-0.47461 0.1289,-0.0586 0.26366,-0.19336 0.40429,-0.4043 0.28125,-0.37499 0.42187,-0.97265 0.42188,-1.79297 l 0,-35.1914 c -10e-6,-0.82027 -0.14063,-1.41793 -0.42188,-1.79297 -0.14063,-0.2109 -0.27539,-0.34566 -0.40429,-0.4043 -0.12891,-0.0586 -0.58009,-0.21675 -1.35352,-0.47461 -0.9375,-0.30464 -1.40625,-0.93745 -1.40625,-1.89844 0,-0.58589 0.22852,-1.03706 0.68555,-1.35351 0.45703,-0.31636 1.10742,-0.47456 1.95117,-0.47461 l 0.91406,0 z m 3.12891,0 14.16797,0 0,12.44531 c -4e-5,0.7266 -0.14066,1.25394 -0.42188,1.58203 -0.28128,0.32816 -0.7266,0.49222 -1.33593,0.49219 -0.51566,3e-5 -0.89066,-0.10544 -1.125,-0.31641 -0.23441,-0.2109 -0.45707,-0.64449 -0.66797,-1.30078 -0.89066,-2.71871 -2.1973,-4.79293 -3.91992,-6.22265 -1.72269,-1.42965 -3.95511,-2.28512 -6.69727,-2.56641 z m -0.17578,25.59375 0,-4.07813 c 1.35935,-0.65622 2.36716,-1.37106 3.02344,-2.14453 0.65622,-0.77341 1.13669,-1.80465 1.4414,-3.09375 0.18747,-0.89059 0.43357,-1.50582 0.73828,-1.8457 0.30466,-0.33981 0.73826,-0.50973 1.30079,-0.50977 0.74996,4e-5 1.26559,0.29301 1.54687,0.87891 0.16403,0.30472 0.24606,0.99613 0.24609,2.07422 l 0,13.39453 c -3e-5,1.10158 -0.12308,1.8633 -0.36914,2.28516 -0.24612,0.42189 -0.69729,0.63282 -1.35351,0.63281 -0.53909,10e-6 -0.96097,-0.16405 -1.26563,-0.49219 -0.30471,-0.32811 -0.55081,-0.87889 -0.73828,-1.65234 -0.39846,-1.61717 -0.96682,-2.85936 -1.70508,-3.72657 -0.7383,-0.86716 -1.69338,-1.44138 -2.86523,-1.72265 z m 0.21094,22.39453 0,-3.79688 c 1.52341,-0.23437 2.78317,-0.56249 3.77929,-0.98437 0.99607,-0.42187 1.99802,-1.0664 3.00586,-1.93359 1.00778,-0.86718 1.81052,-1.76367 2.40821,-2.68946 0.59762,-0.92577 1.16598,-2.15038 1.70507,-3.67383 0.25778,-0.74998 0.52731,-1.25975 0.8086,-1.52929 0.28121,-0.26952 0.66793,-0.40428 1.16015,-0.4043 0.65622,2e-5 1.11325,0.19338 1.3711,0.58008 0.25777,0.38673 0.38668,1.06056 0.38672,2.02148 l 0,12.41016 z"
         style="font-size:72px;text-align:center;line-height:81.00001812%;text-anchor:middle;font-family:Stencil;-inkscape-font-specification:Stencil"
         id="path3037"
         inkscape:connector-curvature="0" />
      <path
         d="m 251.70703,296.11127 14.16797,0 9.77344,41.30859 c 0.18746,0.72657 0.39839,1.3711 0.63281,1.93359 0.2109,0.44532 0.67965,0.8086 1.40625,1.08985 0.60933,0.25781 1.03121,0.51563 1.26562,0.77343 0.23434,0.25782 0.35152,0.60938 0.35157,1.05469 -5e-5,1.21875 -0.91411,1.82813 -2.74219,1.82813 l -17.54297,0 c -0.70315,0 -1.26565,-0.16992 -1.6875,-0.50977 -0.4219,-0.33984 -0.63283,-0.79101 -0.63281,-1.35351 -2e-5,-0.46875 0.0937,-0.82031 0.28125,-1.05469 0.18748,-0.23437 0.60935,-0.52734 1.26562,-0.87891 0.46873,-0.23437 0.79685,-0.49218 0.98438,-0.77344 0.18747,-0.28124 0.28122,-0.6328 0.28125,-1.05468 -3e-5,-0.39843 -0.0352,-0.75 -0.10547,-1.05469 l -1.125,-5.09766 -9.80859,0 0.94921,-4.18359 7.875,0 -6.46875,-28.58203 z m -2.42578,8.92968 1.79297,7.27735 -6.22266,22.71093 c -0.18751,0.65626 -0.28126,1.26564 -0.28125,1.82813 -1e-5,1.47657 0.6914,2.53125 2.07422,3.16406 l 1.23047,0.5625 c 0.77342,0.35157 1.16014,0.9375 1.16016,1.75781 -2e-5,1.17188 -0.85549,1.75782 -2.56641,1.75782 l -8.92969,0 c -0.86719,0 -1.55273,-0.18164 -2.05664,-0.54492 -0.5039,-0.36328 -0.75586,-0.86133 -0.75586,-1.49415 0,-0.67968 0.51563,-1.24218 1.54688,-1.6875 0.96093,-0.42187 1.66992,-0.80273 2.12695,-1.14257 0.45703,-0.33984 0.89648,-0.80273 1.31836,-1.38868 0.65624,-0.96093 1.19531,-2.23827 1.61719,-3.83203 z"
         style="font-size:72px;text-align:center;line-height:81.00001812%;text-anchor:middle;font-family:Stencil;-inkscape-font-specification:Stencil"
         id="path3039"
         inkscape:connector-curvature="0" />
      <path
         d="m 301.38281,296.11127 0,41.30859 c -2e-5,0.91407 0.17576,1.57032 0.52735,1.96875 0.18747,0.23438 0.36325,0.38086 0.52734,0.43945 0.16404,0.0586 0.7031,0.20509 1.61719,0.43946 1.12497,0.25781 1.68747,0.90234 1.6875,1.93359 -3e-5,0.60938 -0.30472,1.10156 -0.91407,1.47656 -0.44533,0.28125 -1.18361,0.42188 -2.21484,0.42188 l -1.19531,0 -15.67969,0 -0.91406,0 c -0.84376,0 -1.49415,-0.15821 -1.95117,-0.47461 -0.45704,-0.31641 -0.68555,-0.76758 -0.68555,-1.35352 0,-0.96093 0.46875,-1.59374 1.40625,-1.89844 0.77343,-0.2578 1.2246,-0.41601 1.35352,-0.4746 0.1289,-0.0586 0.26366,-0.19336 0.40429,-0.4043 0.28125,-0.375 0.42187,-0.97265 0.42188,-1.79297 l 0,-35.19141 c -10e-6,-0.82027 -0.14063,-1.41792 -0.42188,-1.79297 -0.14063,-0.21089 -0.27539,-0.34565 -0.40429,-0.40429 -0.12892,-0.0585 -0.58009,-0.21675 -1.35352,-0.47461 -0.9375,-0.30464 -1.40625,-0.93746 -1.40625,-1.89844 0,-0.58589 0.22851,-1.03706 0.68555,-1.35351 0.45702,-0.31636 1.10741,-0.47457 1.95117,-0.47461 l 0.91406,0 z m 10.79297,24.46875 c 2.15622,0.32814 3.81442,0.69143 4.97461,1.08984 1.16012,0.39846 2.20894,0.93752 3.14648,1.61719 0.98434,0.72658 1.7402,1.59377 2.26758,2.60156 0.5273,1.00783 0.79097,2.07423 0.79102,3.19922 l 0,7.27734 c -5e-5,0.75001 0.24605,1.12501 0.73828,1.125 0.18746,1e-5 0.34566,-0.0527 0.47461,-0.1582 0.12886,-0.10546 0.3105,-0.31054 0.54492,-0.61524 0.58589,-0.79686 1.18355,-1.1953 1.79297,-1.19531 0.39839,1e-5 0.79683,0.21095 1.19531,0.63281 0.39839,0.42189 0.59761,0.84376 0.59766,1.26563 -5e-5,0.72657 -0.34575,1.61133 -1.03711,2.6543 -0.69145,1.04297 -1.55278,1.97461 -2.58399,2.79492 -0.96098,0.77344 -2.00395,1.33008 -3.1289,1.66992 -1.12504,0.33984 -2.44926,0.50977 -3.97266,0.50977 -3.09378,0 -5.50784,-0.88477 -7.24219,-2.6543 -1.7344,-1.76953 -2.60159,-4.23632 -2.60156,-7.40039 l 0,-5.90625 c -3e-5,-1.31249 -0.0118,-2.0742 -0.0351,-2.28516 -0.11722,-0.93748 -0.44534,-1.74607 -0.98438,-2.42578 -0.67971,-0.82029 -1.65237,-1.30076 -2.91797,-1.44141 l 0,-3.76171 c 1.2656,-0.18748 2.16794,-0.5156 2.70703,-0.98438 0.46873,-0.42185 0.79099,-0.90232 0.9668,-1.44141 0.17575,-0.53903 0.26364,-1.3359 0.26367,-2.39062 l 0,-9.31641 c -3e-5,-1.47652 -0.28714,-2.57808 -0.86133,-3.30468 -0.57424,-0.72652 -1.61135,-1.30074 -3.11132,-1.72266 l 0,-3.90234 0.91406,0 c 2.60153,4e-5 4.81637,0.0938 6.64453,0.28125 2.71871,0.25786 5.14449,1.14848 7.27734,2.67187 3.07027,2.17973 4.60543,5.2852 4.60547,9.31641 -4e-5,3.30472 -1.03129,6.01175 -3.09375,8.12109 -0.86723,0.89065 -1.8809,1.61721 -3.04101,2.17969 -1.1602,0.56252 -2.92387,1.19534 -5.29102,1.89844 z"
         style="font-size:72px;text-align:center;line-height:81.00001812%;text-anchor:middle;font-family:Stencil;-inkscape-font-specification:Stencil"
         id="path3041"
         inkscape:connector-curvature="0" />
      <path
         d="m 363.96094,296.11127 15.60937,0 0.94922,0 c 1.75776,4e-5 2.63667,0.60942 2.63672,1.82812 -5e-5,0.96098 -0.4688,1.5938 -1.40625,1.89844 -0.77349,0.25786 -1.22466,0.41606 -1.35352,0.47461 -0.12895,0.0586 -0.26372,0.1934 -0.40429,0.40429 -0.2813,0.37505 -0.42193,0.9727 -0.42188,1.79297 l 0,35.19141 c -5e-5,0.82032 0.14058,1.41797 0.42188,1.79297 0.14057,0.21094 0.27534,0.34571 0.40429,0.4043 0.12886,0.0586 0.58003,0.2168 1.35352,0.4746 0.93745,0.3047 1.4062,0.93751 1.40625,1.89844 -5e-5,1.21875 -0.87896,1.82813 -2.63672,1.82813 l -0.94922,0 -15.64453,0 -1.16016,0 c -1.03128,0 -1.81057,-0.15821 -2.33789,-0.47461 -0.52737,-0.31641 -0.79104,-0.79102 -0.79101,-1.42383 -3e-5,-1.03125 0.56247,-1.67578 1.6875,-1.93359 0.91403,-0.23437 1.45309,-0.38086 1.61719,-0.43946 0.16403,-0.0586 0.32809,-0.19335 0.49218,-0.40429 0.35153,-0.42187 0.52731,-1.08984 0.52735,-2.00391 z m -12.9375,0 6.92578,19.72265 3.05859,-10.65234 0,11.67187 -8.12109,27.2461 -1.86328,0 -13.64063,-40.46485 c -0.46875,-1.35933 -0.96094,-2.27339 -1.47656,-2.74218 -0.30469,-0.30465 -0.83204,-0.5273 -1.58203,-0.66797 -1.52344,-0.32808 -2.28516,-1.05465 -2.28516,-2.17969 0,-0.60933 0.2168,-1.08394 0.65039,-1.42383 0.43359,-0.33979 1.06055,-0.50972 1.88086,-0.50976 z m -13.64063,16.17187 3.72656,10.61719 0,10.58203 c -1e-5,1.07813 0.041,1.85157 0.12305,2.32031 0.082,0.46876 0.26366,0.98438 0.54492,1.54688 0.49218,1.03125 1.17187,1.80469 2.03907,2.32031 l 1.30078,0.84375 c 0.89061,0.53907 1.33592,1.13672 1.33593,1.79297 -1e-5,1.19531 -0.87892,1.79297 -2.63671,1.79297 l -8.82422,0 c -1.75782,0 -2.63672,-0.58594 -2.63672,-1.75782 0,-0.37499 0.0762,-0.6621 0.22851,-0.86132 0.15235,-0.19922 0.45117,-0.42773 0.89649,-0.68555 2.60155,-1.40625 3.90233,-3.84374 3.90234,-7.3125 z"
         style="font-size:72px;text-align:center;line-height:81.00001812%;text-anchor:middle;font-family:Stencil;-inkscape-font-specification:Stencil"
         id="path3043"
         inkscape:connector-curvature="0" />
      <path
         d="m 407.41406,298.95892 c -1.19533,0.42192 -2.03908,0.99614 -2.53125,1.72266 -0.4922,0.7266 -0.7383,1.79301 -0.73828,3.19922 l 0,31.42968 c -2e-5,2.06251 0.28123,3.51564 0.84375,4.35938 0.44529,0.70313 1.25389,1.20703 2.42578,1.51172 l 0,3.86719 c -5.20314,-0.42188 -9.56251,-2.37891 -13.07812,-5.8711 -4.57032,-4.54686 -6.85547,-10.8867 -6.85547,-19.01953 0,-4.0781 0.60351,-7.76364 1.81055,-11.05664 1.20702,-3.29293 2.99413,-6.08785 5.36132,-8.38477 1.80468,-1.75776 3.74999,-3.0937 5.83594,-4.00781 2.08592,-0.91401 4.39451,-1.42964 6.92578,-1.54687 z m 2.88281,0 0,-3.79687 c 2.53123,0.11723 4.84568,0.63286 6.94336,1.54687 2.09763,0.91411 4.0488,2.25005 5.85352,4.00781 4.78121,4.66411 7.17183,11.14457 7.17187,19.44141 -4e-5,8.13283 -2.28519,14.47267 -6.85546,19.01953 -3.51566,3.51563 -7.88675,5.47266 -13.11329,5.8711 l 0,-3.86719 c 0.60936,-0.14062 1.08396,-0.32226 1.42383,-0.54492 0.33982,-0.22266 0.65037,-0.54492 0.93164,-0.9668 0.63279,-0.96093 0.94919,-2.41406 0.94922,-4.35938 l 0,-31.42968 c -3e-5,-1.24215 -0.21096,-2.22652 -0.63281,-2.95313 -0.28128,-0.49214 -0.61526,-0.87886 -1.00195,-1.16015 -0.38675,-0.28121 -0.94339,-0.55074 -1.66993,-0.8086 z"
         style="font-size:72px;text-align:center;line-height:81.00001812%;text-anchor:middle;font-family:Stencil;-inkscape-font-specification:Stencil"
         id="path3045"
         inkscape:connector-curvature="0" />
      <path
         d="m 453.82031,296.11127 0,41.30859 c -2e-5,0.91407 0.17576,1.57032 0.52735,1.96875 0.18747,0.23438 0.36325,0.38086 0.52734,0.43945 0.16404,0.0586 0.7031,0.20509 1.61719,0.43946 1.12497,0.25781 1.68747,0.90234 1.6875,1.93359 -3e-5,0.60938 -0.30472,1.10156 -0.91407,1.47656 -0.44533,0.28125 -1.18361,0.42188 -2.21484,0.42188 l -1.19531,0 -15.67969,0 -0.91406,0 c -0.84376,0 -1.49415,-0.15821 -1.95117,-0.47461 -0.45704,-0.31641 -0.68555,-0.76758 -0.68555,-1.35352 0,-0.96093 0.46875,-1.59374 1.40625,-1.89844 0.77343,-0.2578 1.2246,-0.41601 1.35352,-0.4746 0.1289,-0.0586 0.26366,-0.19336 0.40429,-0.4043 0.28125,-0.375 0.42187,-0.97265 0.42188,-1.79297 l 0,-35.19141 c -10e-6,-0.82027 -0.14063,-1.41792 -0.42188,-1.79297 -0.14063,-0.21089 -0.27539,-0.34565 -0.40429,-0.40429 -0.12892,-0.0585 -0.58009,-0.21675 -1.35352,-0.47461 -0.9375,-0.30464 -1.40625,-0.93746 -1.40625,-1.89844 0,-0.58589 0.22851,-1.03706 0.68555,-1.35351 0.45702,-0.31636 1.10741,-0.47457 1.95117,-0.47461 l 0.91406,0 z m 10.79297,24.46875 c 2.15622,0.32814 3.81442,0.69143 4.97461,1.08984 1.16012,0.39846 2.20894,0.93752 3.14648,1.61719 0.98434,0.72658 1.7402,1.59377 2.26758,2.60156 0.5273,1.00783 0.79097,2.07423 0.79102,3.19922 l 0,7.27734 c -5e-5,0.75001 0.24605,1.12501 0.73828,1.125 0.18746,1e-5 0.34566,-0.0527 0.47461,-0.1582 0.12886,-0.10546 0.3105,-0.31054 0.54492,-0.61524 0.58589,-0.79686 1.18355,-1.1953 1.79297,-1.19531 0.39839,1e-5 0.79683,0.21095 1.19531,0.63281 0.39839,0.42189 0.59761,0.84376 0.59766,1.26563 -5e-5,0.72657 -0.34575,1.61133 -1.03711,2.6543 -0.69145,1.04297 -1.55278,1.97461 -2.58399,2.79492 -0.96098,0.77344 -2.00395,1.33008 -3.1289,1.66992 -1.12504,0.33984 -2.44926,0.50977 -3.97266,0.50977 -3.09378,0 -5.50784,-0.88477 -7.24219,-2.6543 -1.7344,-1.76953 -2.60159,-4.23632 -2.60156,-7.40039 l 0,-5.90625 c -3e-5,-1.31249 -0.0118,-2.0742 -0.0351,-2.28516 -0.11722,-0.93748 -0.44534,-1.74607 -0.98438,-2.42578 -0.67971,-0.82029 -1.65237,-1.30076 -2.91797,-1.44141 l 0,-3.76171 c 1.2656,-0.18748 2.16794,-0.5156 2.70703,-0.98438 0.46873,-0.42185 0.79099,-0.90232 0.9668,-1.44141 0.17575,-0.53903 0.26364,-1.3359 0.26367,-2.39062 l 0,-9.31641 c -3e-5,-1.47652 -0.28714,-2.57808 -0.86133,-3.30468 -0.57424,-0.72652 -1.61135,-1.30074 -3.11132,-1.72266 l 0,-3.90234 0.91406,0 c 2.60153,4e-5 4.81637,0.0938 6.64453,0.28125 2.71871,0.25786 5.14449,1.14848 7.27734,2.67187 3.07027,2.17973 4.60543,5.2852 4.60547,9.31641 -4e-5,3.30472 -1.03129,6.01175 -3.09375,8.12109 -0.86723,0.89065 -1.8809,1.61721 -3.04101,2.17969 -1.1602,0.56252 -2.92387,1.19534 -5.29102,1.89844 z"
         style="font-size:72px;text-align:center;line-height:81.00001812%;text-anchor:middle;font-family:Stencil;-inkscape-font-specification:Stencil"
         id="path3047"
         inkscape:connector-curvature="0" />
      <path
         d="m 510.94922,322.09173 0,15.32813 c -3e-5,0.91407 0.17575,1.57032 0.52734,1.96875 0.18747,0.23438 0.36325,0.38086 0.52735,0.43945 0.16403,0.0586 0.70309,0.20509 1.61718,0.43946 1.12497,0.25781 1.68747,0.90234 1.6875,1.93359 -3e-5,0.67969 -0.31644,1.19531 -0.94922,1.54687 -0.37503,0.23438 -1.10159,0.35157 -2.17968,0.35157 l -1.19532,0 -15.67968,0 -1.16016,0 c -1.0547,0 -1.79298,-0.14063 -2.21484,-0.42188 -0.60939,-0.375 -0.91407,-0.86718 -0.91407,-1.47656 0,-1.03125 0.5625,-1.67578 1.6875,-1.93359 0.91406,-0.23437 1.45312,-0.38086 1.61719,-0.43946 0.16405,-0.0586 0.32811,-0.20507 0.49219,-0.43945 0.35155,-0.39843 0.52733,-1.05468 0.52734,-1.96875 l 0,-11.88281 -9.94922,-23.73047 c -0.375,-0.89058 -0.90234,-1.53511 -1.58203,-1.9336 -0.63281,-0.39839 -1.03711,-0.71479 -1.21289,-0.94921 -0.17578,-0.23433 -0.26367,-0.56246 -0.26367,-0.98438 0,-1.2187 0.89063,-1.82808 2.67188,-1.82812 l 17.22656,0 c 0.91404,4e-5 1.54685,0.10551 1.89844,0.3164 0.58591,0.37505 0.87888,0.86724 0.8789,1.47656 -2e-5,0.75005 -0.33986,1.33599 -1.01953,1.75782 l -1.01953,0.63281 c -0.39846,0.25786 -0.59768,0.64457 -0.59766,1.16016 -2e-5,0.58598 0.12889,1.16019 0.38672,1.72265 z m 1.37109,-3.33984 -1.96875,-4.60547 3.69141,-8.26172 c 0.30465,-0.70308 0.457,-1.66402 0.45703,-2.88281 -3e-5,-1.35933 -0.75003,-2.33199 -2.25,-2.91797 -0.82034,-0.32808 -1.35354,-0.61519 -1.59961,-0.86133 -0.24612,-0.24604 -0.36917,-0.6269 -0.36914,-1.14257 -3e-5,-0.63277 0.21091,-1.11324 0.63281,-1.44141 0.28122,-0.21089 0.59763,-0.35151 0.94922,-0.42188 0.35153,-0.0703 0.96091,-0.10542 1.82813,-0.10546 l 8.68359,0 c 1.64058,4e-5 2.46089,0.65629 2.46094,1.96875 -5e-5,0.46879 -0.11137,0.83207 -0.33399,1.08984 -0.2227,0.25786 -0.65043,0.52739 -1.2832,0.80859 -1.14848,0.51567 -1.96879,1.0313 -2.46094,1.54688 -0.70316,0.75004 -1.2891,1.60551 -1.75781,2.5664 l -0.80859,1.79297 z"
         style="font-size:72px;text-align:center;line-height:81.00001812%;text-anchor:middle;font-family:Stencil;-inkscape-font-specification:Stencil"
         id="path3049"
         inkscape:connector-curvature="0" />
    </g>
    <rect
       style="fill:#000000;fill-opacity:1;fill-rule:nonzero;stroke:none"
       id="rect3051"
       width="569.65381"
       height="11.186555"
       x="103.26051"
       y="349.33026" />
    <g
       style="font-size:16px;font-style:normal;font-variant:normal;font-weight:normal;font-stretch:normal;text-align:center;line-height:125%;letter-spacing:0px;word-spacing:0px;text-anchor:middle;fill:#000000;fill-opacity:1;stroke:none;font-family:Stencil;-inkscape-font-specification:Stencil"
       id="flowRoot3053"
       transform="matrix(1,0,0,0.75659582,16,90.767412)">
      <path
         d="m 157.43945,372.9082 0,2.02149 c -0.72657,0.19924 -1.28028,0.50686 -1.66113,0.92285 -0.38087,0.41604 -0.5713,0.92873 -0.57129,1.53808 -1e-5,0.58596 0.1582,1.09866 0.47461,1.53809 0.3164,0.43947 0.83202,0.85842 1.54688,1.25684 0.49217,0.26955 1.60545,0.78517 3.33984,1.54687 1.05467,0.45705 1.87206,0.87013 2.45215,1.23926 0.58006,0.36915 1.12791,0.82911 1.64355,1.37988 1.3828,1.45314 2.0742,3.18165 2.07422,5.18555 -2e-5,1.51172 -0.37502,2.89454 -1.125,4.14844 -0.75002,1.25391 -1.78126,2.23828 -3.09375,2.95312 -0.70314,0.375 -1.47364,0.6709 -2.31152,0.8877 -0.8379,0.21679 -1.62013,0.32519 -2.34668,0.32519 l 0,-2.0039 c 1.01952,-0.2461 1.75487,-0.58887 2.20605,-1.02832 0.45116,-0.43945 0.67675,-1.03418 0.67676,-1.78418 -10e-6,-0.78515 -0.35157,-1.47656 -1.05469,-2.07422 -0.46876,-0.38671 -1.35938,-0.86718 -2.67187,-1.44141 -1.44142,-0.6328 -2.42872,-1.08397 -2.96192,-1.35351 -0.5332,-0.26953 -1.0459,-0.58593 -1.53808,-0.94922 -2.20313,-1.5703 -3.30469,-3.6621 -3.30469,-6.27539 0,-1.33592 0.27539,-2.56932 0.82617,-3.7002 0.55078,-1.13084 1.31836,-2.04197 2.30274,-2.7334 1.37108,-0.96091 3.0703,-1.49411 5.09765,-1.59961 z m 1.38867,2.02149 0,-1.9336 c 0.70312,0.0469 1.31249,0.13772 1.82813,0.27246 0.51561,0.13479 1.24803,0.4014 2.19727,0.79981 0.23436,0.0938 0.42771,0.14065 0.58007,0.14062 0.22264,3e-5 0.38671,-0.0761 0.49219,-0.22851 l 0.38672,-0.50977 c 0.18748,-0.25779 0.416,-0.38669 0.68555,-0.38672 0.31639,3e-5 0.54783,0.11429 0.69433,0.34278 0.14647,0.22854 0.21971,0.58889 0.21973,1.08105 l 0,5.80078 c -2e-5,0.33986 -0.0967,0.61818 -0.29004,0.83496 -0.19338,0.21682 -0.4424,0.32522 -0.74707,0.3252 -0.23439,2e-5 -0.45119,-0.0762 -0.65039,-0.22852 -0.10549,-0.0937 -0.19045,-0.20799 -0.25488,-0.34277 -0.0645,-0.13475 -0.126,-0.36033 -0.18457,-0.67676 -0.12893,-0.5742 -0.35158,-1.16599 -0.66797,-1.77539 -0.31642,-0.60935 -0.68556,-1.15427 -1.10742,-1.63476 -0.84377,-0.9492 -1.90431,-1.57615 -3.18165,-1.88086 z m -2.30273,20.91797 0,2.0039 c -0.96094,0 -2.02149,-0.27539 -3.18164,-0.82617 -0.4336,-0.19922 -0.73243,-0.32812 -0.89648,-0.38672 -0.16407,-0.0586 -0.32227,-0.0879 -0.47461,-0.0879 -0.23438,0 -0.41016,0.0381 -0.52735,0.11426 -0.11719,0.0762 -0.30469,0.2666 -0.5625,0.57129 -0.21094,0.25781 -0.43945,0.38672 -0.68554,0.38672 -0.65626,0 -0.98438,-0.50391 -0.98438,-1.51172 l 0,-6.39844 c 0,-0.32812 0.0937,-0.60644 0.28125,-0.83496 0.1875,-0.22851 0.42187,-0.34862 0.70313,-0.36035 0.25781,-0.0117 0.45995,0.0615 0.60644,0.21972 0.14648,0.15822 0.27246,0.43654 0.37793,0.83497 0.26953,1.00781 0.65918,1.95117 1.16895,2.83007 0.50976,0.87891 1.10448,1.62305 1.78418,2.23243 0.69139,0.63281 1.48827,1.03711 2.39062,1.21289 z"
         style="font-size:36px"
         id="path3064"
         inkscape:connector-curvature="0" />
      <path
         d="m 176.56445,373.38281 7.08399,0 4.88672,20.6543 c 0.0937,0.36328 0.19919,0.68555 0.3164,0.9668 0.10545,0.22265 0.33983,0.4043 0.70313,0.54492 0.30466,0.12891 0.5156,0.25781 0.63281,0.38672 0.11717,0.1289 0.17576,0.30469 0.17578,0.52734 -2e-5,0.60938 -0.45705,0.91406 -1.37109,0.91406 l -8.77149,0 c -0.35157,0 -0.63282,-0.085 -0.84375,-0.25488 -0.21095,-0.16992 -0.31641,-0.39551 -0.3164,-0.67676 -1e-5,-0.23437 0.0469,-0.41015 0.14062,-0.52734 0.0937,-0.11719 0.30468,-0.26367 0.63281,-0.43945 0.23437,-0.11719 0.39843,-0.2461 0.49219,-0.38672 0.0937,-0.14063 0.14061,-0.31641 0.14063,-0.52735 -2e-5,-0.19921 -0.0176,-0.37499 -0.0527,-0.52734 l -0.5625,-2.54883 -4.90429,0 0.4746,-2.0918 3.9375,0 -3.23437,-14.29101 z m -1.21289,4.46485 0.89649,3.63867 -3.11133,11.35547 c -0.0938,0.32813 -0.14063,0.63281 -0.14063,0.91406 0,0.73828 0.3457,1.26563 1.03711,1.58203 l 0.61524,0.28125 c 0.38671,0.17578 0.58007,0.46875 0.58008,0.87891 -1e-5,0.58593 -0.42775,0.8789 -1.28321,0.8789 l -4.46484,0 c -0.4336,0 -0.77637,-0.0908 -1.02832,-0.27246 -0.25195,-0.18164 -0.37793,-0.43066 -0.37793,-0.74707 0,-0.33984 0.25781,-0.62109 0.77344,-0.84375 0.48046,-0.21093 0.83496,-0.40136 1.06347,-0.57129 0.22852,-0.16992 0.44824,-0.40136 0.65918,-0.69433 0.32812,-0.48047 0.59766,-1.11914 0.8086,-1.91602 z"
         style="font-size:36px"
         id="path3066"
         inkscape:connector-curvature="0" />
      <path
         d="m 201.75391,373.38281 9.35156,16.24219 0,7.75195 -4.79883,0 -11.93555,-20.5664 c -0.25781,-0.44529 -0.46875,-0.75584 -0.63281,-0.93164 -0.16406,-0.17576 -0.375,-0.30467 -0.63281,-0.38672 l -0.66797,-0.2461 c -0.17578,-0.0586 -0.31641,-0.16404 -0.42188,-0.3164 -0.10547,-0.15232 -0.1582,-0.32225 -0.1582,-0.50977 0,-0.19919 0.0527,-0.38376 0.1582,-0.55371 0.10547,-0.1699 0.2461,-0.29001 0.42188,-0.36035 0.19922,-0.082 0.73828,-0.12302 1.61719,-0.12305 z m -7.36524,6.16992 1.86328,3.09375 0,9.42188 c 0,0.82032 0.13769,1.49414 0.41309,2.02148 0.27538,0.52735 0.71191,0.96094 1.30957,1.30078 l 0.52734,0.29883 c 0.30468,0.17579 0.45703,0.43946 0.45703,0.79102 0,0.26953 -0.11133,0.49219 -0.33398,0.66797 -0.18751,0.15234 -0.57423,0.22851 -1.16016,0.22851 l -4.06054,0 c -1.06641,0 -1.59961,-0.30468 -1.59961,-0.91406 0,-0.21094 0.0557,-0.37793 0.16699,-0.50098 0.11133,-0.12304 0.35449,-0.29003 0.72949,-0.50097 1.125,-0.62109 1.6875,-1.75195 1.6875,-3.39258 z m 16.7168,7.25977 -1.86328,-3.14648 0,-4.86915 c -2e-5,-0.98435 -0.14358,-1.73728 -0.43067,-2.25878 -0.28712,-0.52147 -0.79396,-0.96971 -1.5205,-1.34473 -0.24611,-0.11717 -0.41604,-0.24314 -0.50977,-0.37793 -0.0938,-0.13474 -0.14064,-0.30759 -0.14063,-0.51856 -1e-5,-0.31638 0.10253,-0.54782 0.30762,-0.69433 0.20506,-0.14646 0.53612,-0.2197 0.99317,-0.21973 l 4.39453,0 c 0.59763,3e-5 0.99021,0.0938 1.17773,0.28125 0.1992,0.18753 0.29881,0.41018 0.29883,0.66797 -2e-5,0.24612 -0.0557,0.43069 -0.16699,0.55371 -0.11135,0.12307 -0.37795,0.29006 -0.79981,0.50098 -0.62111,0.31643 -1.08986,0.80275 -1.40625,1.45898 -0.22267,0.48049 -0.334,1.13088 -0.33398,1.95117 z"
         style="font-size:36px"
         id="path3068"
         inkscape:connector-curvature="0" />
      <path
         d="m 225.58984,373.38281 0,23.99414 -7.82226,0 -0.45703,0 c -0.42188,0 -0.74708,-0.0791 -0.97559,-0.2373 -0.22852,-0.1582 -0.34277,-0.38379 -0.34277,-0.67676 0,-0.48047 0.23437,-0.79687 0.70312,-0.94922 0.38672,-0.1289 0.6123,-0.208 0.67676,-0.2373 0.0644,-0.0293 0.13183,-0.0967 0.20215,-0.20215 0.14062,-0.1875 0.21093,-0.48633 0.21094,-0.89649 l 0,-17.5957 c -1e-5,-0.41013 -0.0703,-0.70896 -0.21094,-0.89648 -0.0703,-0.10545 -0.1377,-0.17283 -0.20215,-0.20215 -0.0645,-0.0293 -0.29004,-0.10838 -0.67676,-0.23731 -0.46875,-0.15232 -0.70312,-0.46872 -0.70312,-0.94922 0,-0.29294 0.11425,-0.51853 0.34277,-0.67675 0.22851,-0.15818 0.55371,-0.23728 0.97559,-0.23731 l 0.45703,0 z m 3.55078,18.9668 0,-13.86914 c -1e-5,-0.85545 -0.12306,-1.53514 -0.36914,-2.03906 -0.15235,-0.32811 -0.33985,-0.56834 -0.5625,-0.72071 -0.22267,-0.15232 -0.57423,-0.28122 -1.05468,-0.38672 l 0,-1.95117 c 0.62108,3e-5 1.14842,0.0235 1.58203,0.0703 1.48826,0.16409 2.92967,0.7969 4.32422,1.89844 1.38279,1.06643 2.40818,2.4551 3.07617,4.16602 0.69138,1.73439 1.03709,3.65626 1.03711,5.76562 -2e-5,2.39064 -0.43948,4.51466 -1.31836,6.37207 -0.87893,1.85743 -2.13869,3.31934 -3.7793,4.38575 -0.79689,0.51562 -1.5381,0.86718 -2.22363,1.05468 -0.68556,0.1875 -1.58498,0.28125 -2.69824,0.28125 l 0,-1.89843 c 0.49217,-0.12891 0.83494,-0.2461 1.02832,-0.35157 0.19334,-0.10546 0.36033,-0.26953 0.50097,-0.49218 0.17577,-0.25781 0.29589,-0.54785 0.36036,-0.87012 0.0644,-0.32226 0.0967,-0.79394 0.0967,-1.41504 z"
         style="font-size:36px"
         id="path3070"
         inkscape:connector-curvature="0" />
      <path
         d="m 256.43945,372.9082 0,2.02149 c -0.72657,0.19924 -1.28028,0.50686 -1.66113,0.92285 -0.38087,0.41604 -0.5713,0.92873 -0.57129,1.53808 -1e-5,0.58596 0.1582,1.09866 0.47461,1.53809 0.3164,0.43947 0.83202,0.85842 1.54688,1.25684 0.49217,0.26955 1.60545,0.78517 3.33984,1.54687 1.05467,0.45705 1.87206,0.87013 2.45215,1.23926 0.58006,0.36915 1.12791,0.82911 1.64355,1.37988 1.3828,1.45314 2.0742,3.18165 2.07422,5.18555 -2e-5,1.51172 -0.37502,2.89454 -1.125,4.14844 -0.75002,1.25391 -1.78126,2.23828 -3.09375,2.95312 -0.70314,0.375 -1.47364,0.6709 -2.31152,0.8877 -0.8379,0.21679 -1.62013,0.32519 -2.34668,0.32519 l 0,-2.0039 c 1.01952,-0.2461 1.75487,-0.58887 2.20605,-1.02832 0.45116,-0.43945 0.67675,-1.03418 0.67676,-1.78418 -1e-5,-0.78515 -0.35157,-1.47656 -1.05469,-2.07422 -0.46876,-0.38671 -1.35938,-0.86718 -2.67187,-1.44141 -1.44142,-0.6328 -2.42872,-1.08397 -2.96192,-1.35351 -0.5332,-0.26953 -1.0459,-0.58593 -1.53808,-0.94922 -2.20313,-1.5703 -3.30469,-3.6621 -3.30469,-6.27539 0,-1.33592 0.27539,-2.56932 0.82617,-3.7002 0.55078,-1.13084 1.31836,-2.04197 2.30274,-2.7334 1.37108,-0.96091 3.0703,-1.49411 5.09765,-1.59961 z m 1.38867,2.02149 0,-1.9336 c 0.70312,0.0469 1.31249,0.13772 1.82813,0.27246 0.51561,0.13479 1.24803,0.4014 2.19727,0.79981 0.23436,0.0938 0.42771,0.14065 0.58007,0.14062 0.22264,3e-5 0.38671,-0.0761 0.49219,-0.22851 l 0.38672,-0.50977 c 0.18748,-0.25779 0.416,-0.38669 0.68555,-0.38672 0.31639,3e-5 0.54783,0.11429 0.69433,0.34278 0.14647,0.22854 0.21971,0.58889 0.21973,1.08105 l 0,5.80078 c -2e-5,0.33986 -0.0967,0.61818 -0.29004,0.83496 -0.19338,0.21682 -0.4424,0.32522 -0.74707,0.3252 -0.23439,2e-5 -0.45119,-0.0762 -0.65039,-0.22852 -0.10549,-0.0937 -0.19045,-0.20799 -0.25488,-0.34277 -0.0645,-0.13475 -0.126,-0.36033 -0.18457,-0.67676 -0.12893,-0.5742 -0.35158,-1.16599 -0.66797,-1.77539 -0.31642,-0.60935 -0.68556,-1.15427 -1.10742,-1.63476 -0.84377,-0.9492 -1.90431,-1.57615 -3.18165,-1.88086 z m -2.30273,20.91797 0,2.0039 c -0.96094,0 -2.02149,-0.27539 -3.18164,-0.82617 -0.4336,-0.19922 -0.73243,-0.32812 -0.89648,-0.38672 -0.16407,-0.0586 -0.32227,-0.0879 -0.47461,-0.0879 -0.23438,0 -0.41016,0.0381 -0.52735,0.11426 -0.11719,0.0762 -0.30469,0.2666 -0.5625,0.57129 -0.21094,0.25781 -0.43945,0.38672 -0.68554,0.38672 -0.65626,0 -0.98438,-0.50391 -0.98438,-1.51172 l 0,-6.39844 c 0,-0.32812 0.0937,-0.60644 0.28125,-0.83496 0.1875,-0.22851 0.42187,-0.34862 0.70313,-0.36035 0.25781,-0.0117 0.45995,0.0615 0.60644,0.21972 0.14648,0.15822 0.27246,0.43654 0.37793,0.83497 0.26953,1.00781 0.65918,1.95117 1.16895,2.83007 0.50976,0.87891 1.10448,1.62305 1.78418,2.23243 0.69139,0.63281 1.48827,1.03711 2.39062,1.21289 z"
         style="font-size:36px"
         id="path3072"
         inkscape:connector-curvature="0" />
      <path
         d="m 278.11328,373.38281 0,20.6543 c -10e-6,0.45703 0.0879,0.78516 0.26367,0.98437 0.0937,0.11719 0.18163,0.19044 0.26367,0.21973 0.082,0.0293 0.35156,0.10254 0.8086,0.21973 0.56249,0.12891 0.84374,0.45117 0.84375,0.96679 -1e-5,0.30469 -0.15236,0.55079 -0.45703,0.73829 -0.22267,0.14062 -0.59181,0.21093 -1.10742,0.21093 l -0.59766,0 -7.83984,0 -0.45704,0 c -0.42187,0 -0.74707,-0.0791 -0.97558,-0.2373 -0.22852,-0.1582 -0.34278,-0.38379 -0.34278,-0.67676 0,-0.48047 0.23438,-0.79687 0.70313,-0.94922 0.38672,-0.1289 0.6123,-0.208 0.67676,-0.2373 0.0645,-0.0293 0.13183,-0.0967 0.20215,-0.20215 0.14062,-0.1875 0.21093,-0.48633 0.21093,-0.89649 l 0,-17.5957 c 0,-0.41013 -0.0703,-0.70896 -0.21093,-0.89648 -0.0703,-0.10545 -0.1377,-0.17283 -0.20215,-0.20215 -0.0645,-0.0293 -0.29004,-0.10838 -0.67676,-0.23731 -0.46875,-0.15232 -0.70313,-0.46872 -0.70313,-0.94922 0,-0.29294 0.11426,-0.51853 0.34278,-0.67675 0.22851,-0.15818 0.55371,-0.23728 0.97558,-0.23731 l 0.45704,0 z m 1.49414,14.80078 0,-1.88086 c 0.5039,-0.11717 0.85839,-0.24022 1.06348,-0.36914 0.20506,-0.12889 0.38377,-0.32811 0.53613,-0.59765 0.24608,-0.45702 0.36913,-1.07226 0.36914,-1.84571 l 0,-5.625 c -10e-6,-0.55076 -0.041,-0.96091 -0.12305,-1.23046 -0.082,-0.26951 -0.2461,-0.51561 -0.49218,-0.73829 -0.33986,-0.3281 -0.79689,-0.53318 -1.3711,-0.61523 l 0,-1.89844 c 2.41405,3e-5 4.1953,0.22854 5.34375,0.68555 1.3242,0.52737 2.37303,1.33596 3.14649,2.42578 0.78513,1.1133 1.17771,2.47853 1.17773,4.0957 -2e-5,1.80471 -0.39846,3.28127 -1.19531,4.42969 -0.7969,1.13673 -1.91018,1.97462 -3.33984,2.51367 -1.18361,0.43361 -2.88869,0.6504 -5.11524,0.65039 z"
         style="font-size:36px"
         id="path3074"
         inkscape:connector-curvature="0" />
      <path
         d="m 301.03516,373.38281 0,20.6543 c -1e-5,0.45703 0.0879,0.78516 0.26367,0.98437 0.0937,0.11719 0.18163,0.19044 0.26367,0.21973 0.082,0.0293 0.35155,0.10254 0.80859,0.21973 0.56249,0.12891 0.84374,0.45117 0.84375,0.96679 -10e-6,0.30469 -0.15235,0.55079 -0.45703,0.73829 -0.22267,0.14062 -0.59181,0.21093 -1.10742,0.21093 l -0.59766,0 -7.83984,0 -0.45703,0 c -0.42188,0 -0.74707,-0.0791 -0.97559,-0.2373 -0.22851,-0.1582 -0.34277,-0.38379 -0.34277,-0.67676 0,-0.48047 0.23437,-0.79687 0.70312,-0.94922 0.38672,-0.1289 0.61231,-0.208 0.67676,-0.2373 0.0644,-0.0293 0.13184,-0.0967 0.20215,-0.20215 0.14062,-0.1875 0.21094,-0.48633 0.21094,-0.89649 l 0,-17.5957 c 0,-0.41013 -0.0703,-0.70896 -0.21094,-0.89648 -0.0703,-0.10545 -0.1377,-0.17283 -0.20215,-0.20215 -0.0645,-0.0293 -0.29004,-0.10838 -0.67676,-0.23731 -0.46875,-0.15232 -0.70312,-0.46872 -0.70312,-0.94922 0,-0.29294 0.11426,-0.51853 0.34277,-0.67675 0.22852,-0.15818 0.55371,-0.23728 0.97559,-0.23731 l 0.45703,0 z m 5.39648,12.23438 c 1.07811,0.16407 1.90721,0.34571 2.48731,0.54492 0.58005,0.19923 1.10447,0.46876 1.57324,0.80859 0.49216,0.36329 0.87009,0.79689 1.13379,1.30078 0.26365,0.50392 0.39548,1.03712 0.3955,1.59961 l 0,3.63868 c -2e-5,0.375 0.12303,0.5625 0.36914,0.5625 0.0937,0 0.17283,-0.0264 0.23731,-0.0791 0.0644,-0.0527 0.15525,-0.15527 0.27246,-0.30761 0.29295,-0.39844 0.59177,-0.59766 0.89648,-0.59766 0.1992,0 0.39842,0.10547 0.59766,0.31641 0.1992,0.21094 0.2988,0.42188 0.29883,0.63281 -3e-5,0.36328 -0.17288,0.80567 -0.51856,1.32715 -0.34572,0.52148 -0.77639,0.9873 -1.29199,1.39746 -0.48049,0.38672 -1.00197,0.66504 -1.56445,0.83496 -0.56252,0.16992 -1.22463,0.25488 -1.98633,0.25488 -1.54689,0 -2.75392,-0.44238 -3.62109,-1.32715 -0.8672,-0.88476 -1.3008,-2.11816 -1.30078,-3.70019 l 0,-2.95313 c -2e-5,-0.65624 -0.006,-1.0371 -0.0176,-1.14257 -0.0586,-0.46875 -0.22267,-0.87304 -0.49219,-1.2129 -0.33986,-0.41014 -0.82618,-0.65038 -1.45898,-0.7207 l 0,-1.88086 c 0.6328,-0.0937 1.08397,-0.2578 1.35351,-0.49219 0.23436,-0.21092 0.3955,-0.45115 0.4834,-0.7207 0.0879,-0.26952 0.13182,-0.66795 0.13184,-1.19531 l 0,-4.6582 c -2e-5,-0.73826 -0.14357,-1.28905 -0.43067,-1.65235 -0.28712,-0.36326 -0.80568,-0.65037 -1.55566,-0.86133 l 0,-1.95117 0.45703,0 c 1.30077,3e-5 2.40819,0.0469 3.32226,0.14063 1.35936,0.12893 2.57225,0.57424 3.63868,1.33593 1.53513,1.08987 2.30271,2.6426 2.30273,4.65821 -2e-5,1.65236 -0.51565,3.00587 -1.54687,4.06054 -0.43362,0.44533 -0.94045,0.80861 -1.52051,1.08985 -0.5801,0.28126 -1.46193,0.59767 -2.64551,0.94922 z"
         style="font-size:36px"
         id="path3076"
         inkscape:connector-curvature="0" />
      <path
         d="m 326.22461,397.37695 -7.83984,0 -0.45704,0 c -0.42187,0 -0.74707,-0.0791 -0.97558,-0.2373 -0.22852,-0.1582 -0.34278,-0.38379 -0.34278,-0.67676 0,-0.48047 0.23438,-0.79687 0.70313,-0.94922 0.38672,-0.1289 0.6123,-0.208 0.67676,-0.2373 0.0645,-0.0293 0.13183,-0.0967 0.20215,-0.20215 0.14062,-0.1875 0.21093,-0.48633 0.21093,-0.89649 l 0,-17.5957 c 0,-0.41013 -0.0703,-0.70896 -0.21093,-0.89648 -0.0703,-0.10545 -0.1377,-0.17283 -0.20215,-0.20215 -0.0645,-0.0293 -0.29004,-0.10838 -0.67676,-0.23731 -0.46875,-0.15232 -0.70313,-0.46872 -0.70313,-0.94922 0,-0.29294 0.11426,-0.51853 0.34278,-0.67675 0.22851,-0.15818 0.55371,-0.23728 0.97558,-0.23731 l 0.45704,0 7.83984,0 0.45703,0 c 0.42186,3e-5 0.74706,0.0791 0.97559,0.23731 0.2285,0.15822 0.34276,0.38381 0.34277,0.67675 -10e-6,0.4805 -0.23439,0.7969 -0.70313,0.94922 -0.38673,0.12893 -0.61231,0.20803 -0.67675,0.23731 -0.0645,0.0293 -0.13185,0.0967 -0.20215,0.20215 -0.14064,0.18752 -0.21095,0.48635 -0.21094,0.89648 l 0,17.5957 c -10e-6,0.41016 0.0703,0.70899 0.21094,0.89649 0.0703,0.10547 0.13768,0.17285 0.20215,0.20215 0.0644,0.0293 0.29002,0.1084 0.67675,0.2373 0.46874,0.15235 0.70312,0.46875 0.70313,0.94922 -10e-6,0.29297 -0.11427,0.51856 -0.34277,0.67676 -0.22853,0.1582 -0.55373,0.2373 -0.97559,0.2373 z"
         style="font-size:36px"
         id="path3078"
         inkscape:connector-curvature="0" />
      <path
         d="m 340.83203,373.38281 9.35156,16.24219 0,7.75195 -4.79882,0 -11.93555,-20.5664 c -0.25782,-0.44529 -0.46875,-0.75584 -0.63281,-0.93164 -0.16407,-0.17576 -0.37501,-0.30467 -0.63282,-0.38672 l -0.66797,-0.2461 c -0.17578,-0.0586 -0.3164,-0.16404 -0.42187,-0.3164 -0.10547,-0.15232 -0.1582,-0.32225 -0.1582,-0.50977 0,-0.19919 0.0527,-0.38376 0.1582,-0.55371 0.10547,-0.1699 0.24609,-0.29001 0.42187,-0.36035 0.19922,-0.082 0.73828,-0.12302 1.61719,-0.12305 z m -7.36523,6.16992 1.86328,3.09375 0,9.42188 c -1e-5,0.82032 0.13769,1.49414 0.41308,2.02148 0.27539,0.52735 0.71191,0.96094 1.30957,1.30078 l 0.52735,0.29883 c 0.30468,0.17579 0.45702,0.43946 0.45703,0.79102 -10e-6,0.26953 -0.11134,0.49219 -0.33399,0.66797 -0.1875,0.15234 -0.57422,0.22851 -1.16015,0.22851 l -4.06055,0 c -1.06641,0 -1.59961,-0.30468 -1.59961,-0.91406 0,-0.21094 0.0557,-0.37793 0.16699,-0.50098 0.11133,-0.12304 0.35449,-0.29003 0.7295,-0.50097 1.12499,-0.62109 1.68749,-1.75195 1.6875,-3.39258 z m 16.71679,7.25977 -1.86328,-3.14648 0,-4.86915 c -2e-5,-0.98435 -0.14357,-1.73728 -0.43066,-2.25878 -0.28713,-0.52147 -0.79396,-0.96971 -1.52051,-1.34473 -0.24611,-0.11717 -0.41603,-0.24314 -0.50977,-0.37793 -0.0938,-0.13474 -0.14064,-0.30759 -0.14062,-0.51856 -2e-5,-0.31638 0.10252,-0.54782 0.30762,-0.69433 0.20506,-0.14646 0.53611,-0.2197 0.99316,-0.21973 l 4.39453,0 c 0.59764,3e-5 0.99021,0.0938 1.17774,0.28125 0.19919,0.18753 0.2988,0.41018 0.29882,0.66797 -2e-5,0.24612 -0.0557,0.43069 -0.16699,0.55371 -0.11135,0.12307 -0.37795,0.29006 -0.7998,0.50098 -0.62112,0.31643 -1.08987,0.80275 -1.40625,1.45898 -0.22268,0.48049 -0.33401,1.13088 -0.33399,1.95117 z"
         style="font-size:36px"
         id="path3080"
         inkscape:connector-curvature="0" />
      <path
         d="m 364.22852,372.9082 0,1.95117 c -1.03126,0.24612 -1.54689,1.06643 -1.54688,2.46094 l 0,16.36524 c -1e-5,0.63281 0.0879,1.11914 0.26367,1.45898 0.15234,0.28125 0.4746,0.52149 0.9668,0.7207 l 0,1.98633 c -0.37501,0 -0.71778,-0.0293 -1.02832,-0.0879 -0.31056,-0.0586 -0.72364,-0.17578 -1.23926,-0.35156 -1.23047,-0.42188 -2.34375,-1.06641 -3.33984,-1.93359 -0.9961,-0.86719 -1.81641,-1.9043 -2.46094,-3.11133 -0.99609,-1.88671 -1.49414,-4.11913 -1.49414,-6.69727 0,-2.49608 0.44531,-4.71092 1.33594,-6.64453 0.89062,-1.93357 2.16796,-3.45115 3.83203,-4.55273 0.96093,-0.64451 1.99218,-1.1074 3.09375,-1.38868 0.45702,-0.11716 0.99608,-0.17575 1.61719,-0.17578 z m 1.4414,1.91602 0,-1.89844 c 1.91014,0.17581 3.48046,0.52737 4.71094,1.05469 0.36326,0.16408 0.64451,0.24612 0.84375,0.24609 0.18748,3e-5 0.33104,-0.0439 0.43066,-0.13183 0.0996,-0.0879 0.30174,-0.33689 0.60645,-0.74707 0.21092,-0.29295 0.47459,-0.43943 0.79101,-0.43946 0.32811,3e-5 0.55955,0.0908 0.69434,0.27246 0.13475,0.18167 0.20213,0.48343 0.20215,0.90528 l 0,6.83789 c -2e-5,0.89064 -0.32815,1.33595 -0.98438,1.33594 -0.32814,10e-6 -0.5713,-0.0879 -0.72949,-0.26368 -0.15822,-0.17576 -0.30763,-0.52146 -0.44824,-1.03711 -0.1758,-0.65623 -0.49221,-1.42088 -0.94922,-2.29394 -0.45705,-0.87303 -0.8965,-1.5615 -1.31836,-2.06543 -0.48048,-0.58592 -1.01954,-1.01658 -1.61719,-1.29199 -0.59767,-0.27537 -1.34181,-0.4365 -2.23242,-0.4834 z m 7.94531,19.61719 c -0.46877,0.46875 -1.09279,0.94629 -1.87207,1.43261 -0.77931,0.48633 -1.51466,0.87012 -2.20605,1.15137 -0.63283,0.24609 -1.33302,0.44531 -2.10059,0.59766 -0.76759,0.15234 -1.44434,0.22851 -2.03027,0.22851 l 0,-1.98633 c 0.33983,-0.082 0.59471,-0.18163 0.76465,-0.29882 0.16991,-0.11719 0.31346,-0.28125 0.43066,-0.49219 0.19921,-0.36328 0.29882,-0.82617 0.29883,-1.38867 l 0,-5.13282 c -1e-5,-0.45702 -0.0879,-0.78514 -0.26367,-0.98437 -0.0821,-0.11718 -0.16408,-0.19042 -0.2461,-0.21973 -0.082,-0.0293 -0.35157,-0.0967 -0.80859,-0.20215 -0.56251,-0.14061 -0.84376,-0.46873 -0.84375,-0.98437 -10e-6,-0.30468 0.13183,-0.53905 0.39551,-0.70313 0.26366,-0.16405 0.65331,-0.24608 1.16894,-0.24609 l 0.58008,0 6.4336,0 c 0.52732,10e-6 0.89939,0.0732 1.11621,0.21973 0.21677,0.14649 0.32517,0.40138 0.32519,0.76465 -2e-5,0.22266 -0.044,0.40723 -0.13183,0.55371 -0.0879,0.14649 -0.24905,0.30176 -0.4834,0.46582 -0.2344,0.16407 -0.38088,0.31641 -0.43946,0.45703 -0.0586,0.14063 -0.0879,0.39844 -0.0879,0.77344 z"
         style="font-size:36px"
         id="path3082"
         inkscape:connector-curvature="0" />
      <path
         d="m 385.5332,372.9082 0,2.02149 c -0.72657,0.19924 -1.28028,0.50686 -1.66113,0.92285 -0.38087,0.41604 -0.5713,0.92873 -0.57129,1.53808 -10e-6,0.58596 0.1582,1.09866 0.47461,1.53809 0.3164,0.43947 0.83202,0.85842 1.54688,1.25684 0.49217,0.26955 1.60545,0.78517 3.33984,1.54687 1.05467,0.45705 1.87206,0.87013 2.45215,1.23926 0.58006,0.36915 1.12791,0.82911 1.64355,1.37988 1.3828,1.45314 2.0742,3.18165 2.07422,5.18555 -2e-5,1.51172 -0.37502,2.89454 -1.125,4.14844 -0.75002,1.25391 -1.78126,2.23828 -3.09375,2.95312 -0.70314,0.375 -1.47364,0.6709 -2.31152,0.8877 -0.8379,0.21679 -1.62013,0.32519 -2.34668,0.32519 l 0,-2.0039 c 1.01952,-0.2461 1.75487,-0.58887 2.20605,-1.02832 0.45116,-0.43945 0.67675,-1.03418 0.67676,-1.78418 -1e-5,-0.78515 -0.35157,-1.47656 -1.05469,-2.07422 -0.46876,-0.38671 -1.35938,-0.86718 -2.67187,-1.44141 -1.44142,-0.6328 -2.42872,-1.08397 -2.96192,-1.35351 -0.5332,-0.26953 -1.0459,-0.58593 -1.53808,-0.94922 -2.20313,-1.5703 -3.30469,-3.6621 -3.30469,-6.27539 0,-1.33592 0.27539,-2.56932 0.82617,-3.7002 0.55078,-1.13084 1.31836,-2.04197 2.30274,-2.7334 1.37108,-0.96091 3.0703,-1.49411 5.09765,-1.59961 z m 1.38867,2.02149 0,-1.9336 c 0.70312,0.0469 1.31249,0.13772 1.82813,0.27246 0.51561,0.13479 1.24803,0.4014 2.19727,0.79981 0.23436,0.0938 0.42771,0.14065 0.58007,0.14062 0.22264,3e-5 0.38671,-0.0761 0.49219,-0.22851 l 0.38672,-0.50977 c 0.18748,-0.25779 0.416,-0.38669 0.68555,-0.38672 0.31639,3e-5 0.54783,0.11429 0.69433,0.34278 0.14647,0.22854 0.21971,0.58889 0.21973,1.08105 l 0,5.80078 c -2e-5,0.33986 -0.0967,0.61818 -0.29004,0.83496 -0.19338,0.21682 -0.4424,0.32522 -0.74707,0.3252 -0.23439,2e-5 -0.45119,-0.0762 -0.65039,-0.22852 -0.10549,-0.0937 -0.19045,-0.20799 -0.25488,-0.34277 -0.0645,-0.13475 -0.126,-0.36033 -0.18457,-0.67676 -0.12893,-0.5742 -0.35158,-1.16599 -0.66797,-1.77539 -0.31642,-0.60935 -0.68556,-1.15427 -1.10742,-1.63476 -0.84377,-0.9492 -1.90431,-1.57615 -3.18165,-1.88086 z m -2.30273,20.91797 0,2.0039 c -0.96094,0 -2.02149,-0.27539 -3.18164,-0.82617 -0.4336,-0.19922 -0.73243,-0.32812 -0.89648,-0.38672 -0.16407,-0.0586 -0.32227,-0.0879 -0.47461,-0.0879 -0.23438,0 -0.41016,0.0381 -0.52735,0.11426 -0.11719,0.0762 -0.30469,0.2666 -0.5625,0.57129 -0.21094,0.25781 -0.43945,0.38672 -0.68554,0.38672 -0.65626,0 -0.98438,-0.50391 -0.98438,-1.51172 l 0,-6.39844 c 0,-0.32812 0.0937,-0.60644 0.28125,-0.83496 0.1875,-0.22851 0.42187,-0.34862 0.70313,-0.36035 0.25781,-0.0117 0.45995,0.0615 0.60644,0.21972 0.14648,0.15822 0.27246,0.43654 0.37793,0.83497 0.26953,1.00781 0.65918,1.95117 1.16895,2.83007 0.50976,0.87891 1.10448,1.62305 1.78418,2.23243 0.69139,0.63281 1.48827,1.03711 2.39062,1.21289 z"
         style="font-size:36px"
         id="path3084"
         inkscape:connector-curvature="0" />
      <path
         d="m 402.12695,391.06641 c 1.00781,0 1.86914,0.39258 2.58399,1.17773 0.33983,0.36329 0.60936,0.80567 0.80859,1.32715 0.19921,0.52149 0.29882,1.0459 0.29883,1.57324 -10e-6,1.11328 -0.36329,2.24121 -1.08984,3.38379 -0.72657,1.14258 -1.69923,2.1123 -2.91797,2.90918 -1.03126,0.67968 -1.83985,1.01953 -2.42578,1.01953 -0.23438,0 -0.42774,-0.0703 -0.58008,-0.21094 -0.15235,-0.14063 -0.22852,-0.32813 -0.22852,-0.5625 0,-0.35156 0.22266,-0.64453 0.66797,-0.8789 1.0664,-0.55079 1.8457,-1.09571 2.33789,-1.63477 0.46875,-0.50391 0.70312,-0.87305 0.70313,-1.10742 -1e-5,-0.22266 -0.17579,-0.35742 -0.52735,-0.4043 l -0.22851,-0.0352 -0.26368,-0.0176 c -0.76172,-0.11719 -1.37988,-0.47168 -1.85449,-1.06348 -0.47461,-0.59179 -0.71191,-1.30957 -0.71191,-2.15332 0,-0.86718 0.29296,-1.61718 0.8789,-2.25 0.66797,-0.71484 1.51758,-1.07226 2.54883,-1.07226 z"
         style="font-size:36px"
         id="path3086"
         inkscape:connector-curvature="0" />
      <path
         d="m 427.87891,374.80664 c -0.59767,0.21096 -1.01954,0.49807 -1.26563,0.86133 -0.2461,0.3633 -0.36915,0.8965 -0.36914,1.59961 l 0,15.71484 c -1e-5,1.03126 0.14062,1.75782 0.42188,2.17969 0.22264,0.35156 0.62694,0.60352 1.21289,0.75586 l 0,1.93359 c -2.60157,-0.21094 -4.78126,-1.18945 -6.53907,-2.93554 -2.28515,-2.27344 -3.42773,-5.44336 -3.42773,-9.50977 0,-2.03905 0.30176,-3.88182 0.90527,-5.52832 0.60352,-1.64647 1.49707,-3.04393 2.68067,-4.19238 0.90234,-0.87889 1.87499,-1.54685 2.91797,-2.00391 1.04296,-0.45701 2.19725,-0.71482 3.46289,-0.77344 z m 1.4414,0 0,-1.89844 c 1.26561,0.0586 2.42284,0.31643 3.47168,0.77344 1.04881,0.45706 2.0244,1.12502 2.92676,2.00391 2.3906,2.33205 3.58592,5.57228 3.58594,9.7207 -2e-5,4.06641 -1.1426,7.23633 -3.42774,9.50977 -1.75783,1.75781 -3.94337,2.73632 -6.55664,2.93554 l 0,-1.93359 c 0.30468,-0.0703 0.54198,-0.16113 0.71192,-0.27246 0.16991,-0.11133 0.32518,-0.27246 0.46582,-0.4834 0.31639,-0.48047 0.47459,-1.20703 0.47461,-2.17969 l 0,-15.71484 c -2e-5,-0.62107 -0.10549,-1.11326 -0.31641,-1.47656 -0.14064,-0.24608 -0.30763,-0.43944 -0.50098,-0.58008 -0.19337,-0.14061 -0.47169,-0.27537 -0.83496,-0.4043 z"
         style="font-size:36px"
         id="path3088"
         inkscape:connector-curvature="0" />
      <path
         d="m 451.46875,397.37695 -7.83984,0 -0.45704,0 c -0.42187,0 -0.74707,-0.0791 -0.97558,-0.2373 -0.22852,-0.1582 -0.34278,-0.38379 -0.34277,-0.67676 -10e-6,-0.48047 0.23437,-0.79687 0.70312,-0.94922 0.38672,-0.1289 0.6123,-0.208 0.67676,-0.2373 0.0644,-0.0293 0.13183,-0.0967 0.20215,-0.20215 0.14062,-0.1875 0.21093,-0.48633 0.21093,-0.89649 l 0,-17.5957 c 0,-0.41013 -0.0703,-0.70896 -0.21093,-0.89648 -0.0703,-0.10545 -0.1377,-0.17283 -0.20215,-0.20215 -0.0645,-0.0293 -0.29004,-0.10838 -0.67676,-0.23731 -0.46875,-0.15232 -0.70313,-0.46872 -0.70312,-0.94922 -10e-6,-0.29294 0.11425,-0.51853 0.34277,-0.67675 0.22851,-0.15818 0.55371,-0.23728 0.97558,-0.23731 l 0.45704,0 7.83984,0 0.45703,0 c 0.42186,3e-5 0.74706,0.0791 0.97559,0.23731 0.2285,0.15822 0.34276,0.38381 0.34277,0.67675 -1e-5,0.4805 -0.23439,0.7969 -0.70312,0.94922 -0.38674,0.12893 -0.61232,0.20803 -0.67676,0.23731 -0.0645,0.0293 -0.13185,0.0967 -0.20215,0.20215 -0.14064,0.18752 -0.21095,0.48635 -0.21094,0.89648 l 0,17.5957 c -10e-6,0.65626 0.16991,1.04298 0.50977,1.16016 l 0.54492,0.17578 c 0.4453,0.14063 0.66795,0.45703 0.66797,0.94922 -2e-5,0.60938 -0.41603,0.91406 -1.24805,0.91406 z m 6.96094,-17.0332 5.30859,13.88672 c 0.1406,0.375 0.28709,0.65918 0.43945,0.85254 0.15232,0.19336 0.35154,0.34277 0.59766,0.44824 0.24607,0.11719 0.40427,0.20508 0.47461,0.26367 0.16404,0.16407 0.24607,0.38086 0.24609,0.65039 -2e-5,0.6211 -0.43947,0.93164 -1.31836,0.93164 l -8.84179,0 c -0.42189,0 -0.74709,-0.0879 -0.97559,-0.26367 -0.22853,-0.17578 -0.34279,-0.42773 -0.34277,-0.75586 -2e-5,-0.375 0.21678,-0.66797 0.65039,-0.8789 0.26952,-0.12891 0.45116,-0.23731 0.54492,-0.3252 0.0937,-0.0879 0.14647,-0.20801 0.1582,-0.36035 -10e-6,-0.082 -0.0469,-0.26953 -0.14062,-0.5625 l -2.25,-6.71485 c -0.21095,-0.62108 -0.31642,-1.14842 -0.31641,-1.58203 -1e-5,-0.41014 0.16991,-0.85545 0.50977,-1.33593 l 4.20117,-5.92383 c 0.39842,-0.55076 0.59764,-1.12498 0.59766,-1.72266 -2e-5,-0.3281 -0.0879,-0.63279 -0.26368,-0.91406 -0.17579,-0.28123 -0.41017,-0.48045 -0.70312,-0.59766 l -0.63281,-0.26367 c -0.39846,-0.16404 -0.59768,-0.43943 -0.59766,-0.82617 -2e-5,-0.31638 0.12303,-0.5742 0.36914,-0.77344 0.16405,-0.12888 0.43358,-0.19333 0.80859,-0.19336 l 6.25782,0 c 0.41013,3e-5 0.72947,0.0908 0.95801,0.27246 0.22849,0.18167 0.34274,0.43655 0.34277,0.76465 -3e-5,0.49221 -0.26956,0.84377 -0.8086,1.05469 l -0.93164,0.36914 c -0.38674,0.14065 -0.87892,0.45705 -1.47656,0.94922 -0.44533,0.37502 -0.99611,1.00197 -1.65234,1.88086 z"
         style="font-size:36px"
         id="path3090"
         inkscape:connector-curvature="0" />
      <path
         d="m 477.51953,397.37695 -7.82226,0 -0.45704,0 c -0.42187,0 -0.74707,-0.0791 -0.97558,-0.2373 -0.22852,-0.1582 -0.34278,-0.38379 -0.34278,-0.67676 0,-0.48047 0.23438,-0.79687 0.70313,-0.94922 0.38672,-0.1289 0.6123,-0.208 0.67676,-0.2373 0.0645,-0.0293 0.13183,-0.0967 0.20215,-0.20215 0.14062,-0.1875 0.21093,-0.48633 0.21093,-0.89649 l 0,-17.5957 c 0,-0.41013 -0.0703,-0.70896 -0.21093,-0.89648 -0.0703,-0.10545 -0.1377,-0.17283 -0.20215,-0.20215 -0.0645,-0.0293 -0.29004,-0.10838 -0.67676,-0.23731 -0.46875,-0.15232 -0.70313,-0.46872 -0.70313,-0.94922 0,-0.29294 0.11426,-0.51853 0.34278,-0.67675 0.22851,-0.15818 0.55371,-0.23728 0.97558,-0.23731 l 0.45704,0 7.83984,0 0.59766,0 c 0.51561,3e-5 0.88475,0.0703 1.10742,0.21094 0.30467,0.18752 0.45702,0.43362 0.45703,0.73828 -1e-5,0.51565 -0.28126,0.83791 -0.84375,0.9668 -0.45704,0.10549 -0.72658,0.1758 -0.8086,0.21094 -0.082,0.0352 -0.16993,0.10549 -0.26367,0.21093 -0.17579,0.21096 -0.26368,0.53909 -0.26367,0.98438 z m 1.42383,0 0,-1.96875 c 0.57421,-0.10546 1.02831,-0.22265 1.3623,-0.35156 0.33397,-0.1289 0.65331,-0.3164 0.95801,-0.5625 0.49217,-0.38671 0.94335,-0.91992 1.35352,-1.59961 0.41014,-0.67968 0.74412,-1.43554 1.00195,-2.26758 0.18748,-0.64452 0.36033,-1.06932 0.51856,-1.27441 0.15818,-0.20507 0.38963,-0.30761 0.69433,-0.30762 0.32811,1e-5 0.56834,0.13478 0.7207,0.4043 0.0703,0.12891 0.10545,0.38673 0.10547,0.77344 l 0,7.15429 z"
         style="font-size:36px"
         id="path3092"
         inkscape:connector-curvature="0" />
      <path
         d="m 494.16602,373.38281 7.08398,0 4.88672,20.6543 c 0.0937,0.36328 0.1992,0.68555 0.3164,0.9668 0.10545,0.22265 0.33983,0.4043 0.70313,0.54492 0.30467,0.12891 0.5156,0.25781 0.63281,0.38672 0.11717,0.1289 0.17576,0.30469 0.17578,0.52734 -2e-5,0.60938 -0.45705,0.91406 -1.37109,0.91406 l -8.77148,0 c -0.35158,0 -0.63283,-0.085 -0.84375,-0.25488 -0.21095,-0.16992 -0.31642,-0.39551 -0.31641,-0.67676 -10e-6,-0.23437 0.0469,-0.41015 0.14062,-0.52734 0.0937,-0.11719 0.30468,-0.26367 0.63282,-0.43945 0.23436,-0.11719 0.39842,-0.2461 0.49218,-0.38672 0.0937,-0.14063 0.14062,-0.31641 0.14063,-0.52735 -10e-6,-0.19921 -0.0176,-0.37499 -0.0527,-0.52734 l -0.5625,-2.54883 -4.90429,0 0.47461,-2.0918 3.9375,0 -3.23438,-14.29101 z m -1.2129,4.46485 0.89649,3.63867 -3.11133,11.35547 c -0.0937,0.32813 -0.14063,0.63281 -0.14062,0.91406 -1e-5,0.73828 0.34569,1.26563 1.03711,1.58203 l 0.61523,0.28125 c 0.38671,0.17578 0.58007,0.46875 0.58008,0.87891 -1e-5,0.58593 -0.42774,0.8789 -1.28321,0.8789 l -4.46484,0 c -0.43359,0 -0.77637,-0.0908 -1.02832,-0.27246 -0.25195,-0.18164 -0.37793,-0.43066 -0.37793,-0.74707 0,-0.33984 0.25781,-0.62109 0.77344,-0.84375 0.48047,-0.21093 0.83496,-0.40136 1.06348,-0.57129 0.22851,-0.16992 0.44824,-0.40136 0.65917,-0.69433 0.32813,-0.48047 0.59766,-1.11914 0.8086,-1.91602 z"
         style="font-size:36px"
         id="path3094"
         inkscape:connector-curvature="0" />
      <path
         d="m 520.86719,384.24609 2.86523,0 0,-7.66406 c -1e-5,-0.65623 -0.16994,-1.04295 -0.50976,-1.16016 l -0.5625,-0.17578 c -0.44533,-0.1406 -0.66799,-0.457 -0.66797,-0.94922 -2e-5,-0.60935 0.42186,-0.91403 1.26562,-0.91406 l 0.45703,0 7.82227,0 0.47461,0 c 0.87888,3e-5 1.31833,0.30471 1.31836,0.91406 -3e-5,0.4805 -0.2344,0.7969 -0.70313,0.94922 -0.38674,0.12893 -0.61233,0.20803 -0.67675,0.23731 -0.0645,0.0293 -0.13186,0.0967 -0.20215,0.20215 -0.14065,0.18752 -0.21096,0.48635 -0.21094,0.89648 l 0,17.52539 c -2e-5,0.64454 0.17576,1.03711 0.52734,1.17774 l 0.5625,0.19336 c 0.46873,0.15234 0.7031,0.47461 0.70313,0.96679 -3e-5,0.6211 -0.43948,0.93164 -1.31836,0.93164 l -0.47461,0 -7.82227,0 -0.49218,0 c -0.82033,0 -1.23049,-0.31054 -1.23047,-0.93164 -2e-5,-0.49218 0.22264,-0.81445 0.66797,-0.96679 l 0.5625,-0.19336 c 0.33982,-0.10547 0.50975,-0.49805 0.50976,-1.17774 l 0,-8.12109 -2.86523,0 z m -1.47657,13.13086 -7.83984,0 -0.45703,0 c -0.42188,0 -0.74707,-0.0791 -0.97559,-0.2373 -0.22851,-0.1582 -0.34277,-0.38379 -0.34277,-0.67676 0,-0.48047 0.23437,-0.79687 0.70313,-0.94922 0.38671,-0.1289 0.6123,-0.208 0.67675,-0.2373 0.0645,-0.0293 0.13184,-0.0967 0.20215,-0.20215 0.14062,-0.1875 0.21094,-0.48633 0.21094,-0.89649 l 0,-17.5957 c 0,-0.41013 -0.0703,-0.70896 -0.21094,-0.89648 -0.0703,-0.10545 -0.1377,-0.17283 -0.20215,-0.20215 -0.0644,-0.0293 -0.29004,-0.10838 -0.67675,-0.23731 -0.46876,-0.15232 -0.70313,-0.46872 -0.70313,-0.94922 0,-0.29294 0.11426,-0.51853 0.34277,-0.67675 0.22852,-0.15818 0.55371,-0.23728 0.97559,-0.23731 l 0.45703,0 7.83984,0 0.45704,0 c 0.83201,3e-5 1.24803,0.30471 1.24804,0.91406 -10e-6,0.49222 -0.22267,0.80862 -0.66797,0.94922 l -0.54492,0.17578 c -0.33985,0.11721 -0.50977,0.50393 -0.50976,1.16016 l 0,17.5957 c -1e-5,0.65626 0.16991,1.04298 0.50976,1.16016 l 0.54492,0.17578 c 0.4453,0.14063 0.66796,0.45703 0.66797,0.94922 -10e-6,0.60938 -0.41603,0.91406 -1.24804,0.91406 z"
         style="font-size:36px"
         id="path3096"
         inkscape:connector-curvature="0" />
      <path
         d="m 545.86328,374.80664 c -0.59767,0.21096 -1.01954,0.49807 -1.26562,0.86133 -0.24611,0.3633 -0.36915,0.8965 -0.36914,1.59961 l 0,15.71484 c -10e-6,1.03126 0.14061,1.75782 0.42187,2.17969 0.22265,0.35156 0.62694,0.60352 1.21289,0.75586 l 0,1.93359 c -2.60157,-0.21094 -4.78125,-1.18945 -6.53906,-2.93554 -2.28516,-2.27344 -3.42774,-5.44336 -3.42774,-9.50977 0,-2.03905 0.30176,-3.88182 0.90528,-5.52832 0.60351,-1.64647 1.49707,-3.04393 2.68066,-4.19238 0.90234,-0.87889 1.875,-1.54685 2.91797,-2.00391 1.04296,-0.45701 2.19726,-0.71482 3.46289,-0.77344 z m 1.44141,0 0,-1.89844 c 1.26561,0.0586 2.42283,0.31643 3.47168,0.77344 1.04881,0.45706 2.02439,1.12502 2.92675,2.00391 2.39061,2.33205 3.58592,5.57228 3.58594,9.7207 -2e-5,4.06641 -1.1426,7.23633 -3.42773,9.50977 -1.75783,1.75781 -3.94338,2.73632 -6.55664,2.93554 l 0,-1.93359 c 0.30467,-0.0703 0.54198,-0.16113 0.71191,-0.27246 0.16991,-0.11133 0.32518,-0.27246 0.46582,-0.4834 0.31639,-0.48047 0.4746,-1.20703 0.47461,-2.17969 l 0,-15.71484 c -10e-6,-0.62107 -0.10548,-1.11326 -0.31641,-1.47656 -0.14063,-0.24608 -0.30763,-0.43944 -0.50097,-0.58008 -0.19337,-0.14061 -0.47169,-0.27537 -0.83496,-0.4043 z"
         style="font-size:36px"
         id="path3098"
         inkscape:connector-curvature="0" />
      <path
         d="m 575.18359,373.38281 7.80469,0 0.47461,0 c 0.87888,3e-5 1.31833,0.30471 1.31836,0.91406 -3e-5,0.4805 -0.2344,0.7969 -0.70313,0.94922 -0.38674,0.12893 -0.61233,0.20803 -0.67675,0.23731 -0.0645,0.0293 -0.13186,0.0967 -0.20215,0.20215 -0.14065,0.18752 -0.21096,0.48635 -0.21094,0.89648 l 0,17.5957 c -2e-5,0.41016 0.0703,0.70899 0.21094,0.89649 0.0703,0.10547 0.13767,0.17285 0.20215,0.20215 0.0644,0.0293 0.29001,0.1084 0.67675,0.2373 0.46873,0.15235 0.7031,0.46875 0.70313,0.94922 -3e-5,0.60938 -0.43948,0.91406 -1.31836,0.91406 l -0.47461,0 -7.82226,0 -0.58008,0 c -0.51564,0 -0.90529,-0.0791 -1.16895,-0.2373 -0.26368,-0.1582 -0.39552,-0.39551 -0.39551,-0.71192 -10e-6,-0.51562 0.28124,-0.83788 0.84375,-0.96679 0.45702,-0.11719 0.72655,-0.19043 0.8086,-0.21973 0.082,-0.0293 0.16404,-0.0967 0.24609,-0.20215 0.17577,-0.21093 0.26366,-0.54492 0.26367,-1.00195 z m -6.46875,0 3.46289,9.86133 1.5293,-5.32617 0,5.83594 -4.06055,13.62304 -0.93164,0 -6.82031,-20.23242 c -0.23438,-0.67967 -0.48047,-1.1367 -0.73828,-1.37109 -0.15235,-0.15232 -0.41602,-0.26365 -0.79102,-0.33399 -0.76172,-0.16404 -1.14257,-0.52732 -1.14257,-1.08984 0,-0.30466 0.10839,-0.54197 0.32519,-0.71191 0.2168,-0.1699 0.53027,-0.25486 0.94043,-0.25489 z m -6.82031,8.08594 1.86328,5.30859 0,5.29102 c 0,0.53907 0.0205,0.92579 0.0615,1.16016 0.041,0.23437 0.13183,0.49219 0.27246,0.77343 0.24608,0.51563 0.58593,0.90235 1.01953,1.16016 l 0.65039,0.42187 c 0.4453,0.26954 0.66796,0.56836 0.66797,0.89649 -10e-6,0.59766 -0.43946,0.89648 -1.31836,0.89648 l -4.41211,0 c -0.87891,0 -1.31836,-0.29297 -1.31836,-0.8789 0,-0.1875 0.0381,-0.33106 0.11426,-0.43067 0.0762,-0.0996 0.22558,-0.21386 0.44824,-0.34277 1.30078,-0.70312 1.95117,-1.92187 1.95117,-3.65625 z"
         style="font-size:36px"
         id="path3100"
         inkscape:connector-curvature="0" />
      <path
         d="m 594.71289,373.38281 7.08398,0 4.88672,20.6543 c 0.0937,0.36328 0.1992,0.68555 0.31641,0.9668 0.10545,0.22265 0.33982,0.4043 0.70312,0.54492 0.30467,0.12891 0.51561,0.25781 0.63282,0.38672 0.11716,0.1289 0.17576,0.30469 0.17578,0.52734 -2e-5,0.60938 -0.45705,0.91406 -1.3711,0.91406 l -8.77148,0 c -0.35157,0 -0.63282,-0.085 -0.84375,-0.25488 -0.21095,-0.16992 -0.31642,-0.39551 -0.31641,-0.67676 -10e-6,-0.23437 0.0469,-0.41015 0.14063,-0.52734 0.0937,-0.11719 0.30468,-0.26367 0.63281,-0.43945 0.23436,-0.11719 0.39843,-0.2461 0.49219,-0.38672 0.0937,-0.14063 0.14061,-0.31641 0.14062,-0.52735 -10e-6,-0.19921 -0.0176,-0.37499 -0.0527,-0.52734 L 598,391.48828 l -4.9043,0 0.47461,-2.0918 3.9375,0 -3.23437,-14.29101 z m -1.21289,4.46485 0.89648,3.63867 -3.11132,11.35547 c -0.0938,0.32813 -0.14063,0.63281 -0.14063,0.91406 0,0.73828 0.3457,1.26563 1.03711,1.58203 l 0.61523,0.28125 c 0.38672,0.17578 0.58008,0.46875 0.58008,0.87891 0,0.58593 -0.42774,0.8789 -1.2832,0.8789 l -4.46484,0 c -0.4336,0 -0.77637,-0.0908 -1.02832,-0.27246 -0.25196,-0.18164 -0.37793,-0.43066 -0.37793,-0.74707 0,-0.33984 0.25781,-0.62109 0.77343,-0.84375 0.48047,-0.21093 0.83496,-0.40136 1.06348,-0.57129 0.22851,-0.16992 0.44824,-0.40136 0.65918,-0.69433 0.32812,-0.48047 0.59765,-1.11914 0.80859,-1.91602 z"
         style="font-size:36px"
         id="path3102"
         inkscape:connector-curvature="0" />
    </g>
  </g>
</svg>
